STARTFONT 2.1
COMMENT
COMMENT Converted from OpenType font "Q:\font stuff\winfont\Butterfly.otf" by "otf2bdf 3.0".
COMMENT
FONT -FreeType-Butterfly-Medium-R-Normal--84-840-72-72-P-434-ISO10646-1
SIZE 84 72 72
FONTBOUNDINGBOX 168 94 -39 -32
STARTPROPERTIES 19
FOUNDRY "FreeType"
FAMILY_NAME "Butterfly"
WEIGHT_NAME "Medium"
SLANT "R"
SETWIDTH_NAME "Normal"
ADD_STYLE_NAME ""
PIXEL_SIZE 84
POINT_SIZE 840
RESOLUTION_X 72
RESOLUTION_Y 72
SPACING "P"
AVERAGE_WIDTH 434
CHARSET_REGISTRY "ISO10646"
CHARSET_ENCODING "1"
FONT_ASCENT 62
FONT_DESCENT 29
COPYRIGHT "N/A"
_OTF_FONTFILE "Q:\font stuff\winfont\Butterfly.otf"
_OTF_PSNAME "Butterfly"
ENDPROPERTIES
CHARS 175
STARTCHAR 0020
ENCODING 32
SWIDTH 202 0
DWIDTH 17 0
BBX 0 0 0 0
BITMAP
ENDCHAR
STARTCHAR 0021
ENCODING 33
SWIDTH 297 0
DWIDTH 25 0
BBX 37 51 7 1
BITMAP
0000000018
0000000038
0000000070
0000000070
00000000E0
00000001C0
00000001C0
0000000380
0000000700
0000000600
0000000E00
0000001C00
0000001800
0000003000
0000007000
0000006000
000000C000
0000018000
0000018000
0000030000
0000060000
00000C0000
00000C0000
0000180000
0000300000
0000200000
0000600000
0000C00000
0000800000
0001000000
0003000000
0002000000
0004000000
0008000000
0008000000
0010000000
0020000000
0040000000
0040000000
0080000000
0100000000
0200000000
0600000000
0000000000
0000000000
0000000000
0000000000
7000000000
F000000000
E000000000
C000000000
ENDCHAR
STARTCHAR 0022
ENCODING 34
SWIDTH 285 0
DWIDTH 24 0
BBX 13 19 33 31
BITMAP
0208
0718
0738
0E38
0E78
0E70
0C70
1C60
18E0
18C0
10C0
3080
3180
2180
6100
4100
4200
8200
8000
ENDCHAR
STARTCHAR 0023
ENCODING 35
SWIDTH 250 0
DWIDTH 21 0
BBX 18 18 2 0
BITMAP
001040
001080
002100
004100
008200
008400
1FFFC0
020800
021000
042000
082000
FFFC00
104000
208000
210000
410000
820000
840000
ENDCHAR
STARTCHAR 0024
ENCODING 36
SWIDTH 285 0
DWIDTH 24 0
BBX 35 47 -1 -8
BITMAP
0000000020
0000000040
0000000080
0000000080
0000000100
0000000200
0000003E00
0000004500
0000018900
0000011100
0000021100
0000062200
0000044400
00000C8800
0000088000
0000190000
00001A0000
00001A0000
00001C0000
0000180000
0000180000
0000180000
0000180000
0000380000
0000580000
0060980000
0181180000
0201180000
0202180000
0404300000
0808300000
0808300000
0810200000
0820600000
0840400000
0840800000
0481000000
0306000000
01F8000000
0200000000
0400000000
0800000000
1000000000
1000000000
2000000000
4000000000
8000000000
ENDCHAR
STARTCHAR 0025
ENCODING 37
SWIDTH 452 0
DWIDTH 38 0
BBX 34 43 5 -10
BITMAP
00003C0040
0000E20080
0001C20100
0003840200
0006840200
000C840400
0018880800
0030983000
0030906000
006061C000
00C05E8000
00C0810000
0081020000
01820C0000
0104103000
010820C800
0110430800
01E0860800
00030C1000
0006181000
000C302000
0010602000
0020C04000
00C0C08000
01C1808000
0383010000
0303020000
0606040000
0C04080000
1804100000
1804200000
3004C00000
6003000000
6000000000
4000000000
C000000000
8000000000
8020000000
8040000000
8080000000
4100000000
2600000000
1800000000
ENDCHAR
STARTCHAR 0026
ENCODING 38
SWIDTH 654 0
DWIDTH 55 0
BBX 39 41 15 -7
BITMAP
0000000100
0000000E80
0000001080
0000002080
0000004100
0000008200
0000010C00
0000033000
000006C000
00000D0000
00001E0000
0000780000
0003B007F0
001C603808
0070E0C004
01C0C10002
0381C00002
0E01800002
1C03800002
1803800004
381FFF8008
70E607FFF0
610E008700
620E008000
E40C010000
C41C020000
C81C040000
C018040000
C018080000
C018100000
4018200000
6018400000
3019800000
1C1A000000
07FC000000
001800C000
0018008000
0008010000
0004060000
0002080000
0001F00000
ENDCHAR
STARTCHAR 0027
ENCODING 39
SWIDTH 250 0
DWIDTH 21 0
BBX 10 9 33 40
BITMAP
00C0
01C0
0380
0700
0E00
1800
3000
6000
8000
ENDCHAR
STARTCHAR 0028
ENCODING 40
SWIDTH 654 0
DWIDTH 55 0
BBX 51 68 29 -11
BITMAP
00000000000020
000000000000C0
00000000000300
00000000000C00
00000000003000
0000000000C000
00000000010000
00000000060000
00000000180000
00000000300000
00000000C00000
00000001800000
00000003000000
0000000C000000
00000018000000
00000030000000
000000E0000000
000001C0000000
00000380000000
00000700000000
00000E00000000
00001C00000000
00003800000000
00007000000000
0000E000000000
0001E000000000
0003C000000000
00038000000000
00070000000000
000F0000000000
000E0000000000
001C0000000000
003C0000000000
00380000000000
00700000000000
00700000000000
00E00000000000
00E00000000000
00C00000000000
01800000000000
01800000000000
03000000000000
03000000000000
03000000000000
06000000000000
06000000000000
04000000000000
0C000000000000
0C000000000000
08000000000000
08000000000000
18000000000000
10000000000000
10000000000000
10000000000000
20000000000000
20000000000000
20000000000000
20000000000000
20000000000000
40000000000000
40000000000000
40000000000000
40000000000000
40000000000000
40000000000000
80000000000000
80000000000000
ENDCHAR
STARTCHAR 0029
ENCODING 41
SWIDTH 654 0
DWIDTH 55 0
BBX 49 68 18 -10
BITMAP
00000000000080
00000000000080
00000000000080
00000000000080
00000000000080
00000000000080
00000000000080
00000000000080
00000000000080
00000000000100
00000000000100
00000000000100
00000000000100
00000000000100
00000000000100
00000000000200
00000000000200
00000000000200
00000000000200
00000000000400
00000000000400
00000000000C00
00000000000C00
00000000000800
00000000001800
00000000001800
00000000003000
00000000003000
00000000006000
00000000006000
0000000000E000
0000000000C000
0000000001C000
00000000038000
00000000038000
00000000070000
000000000F0000
000000000E0000
000000001C0000
000000003C0000
00000000780000
00000000700000
00000000F00000
00000001E00000
00000003C00000
00000007800000
0000000F000000
0000000E000000
0000001C000000
00000038000000
00000070000000
000000E0000000
000003C0000000
00000700000000
00000E00000000
00001C00000000
00003000000000
0000E000000000
00018000000000
00020000000000
000C0000000000
00300000000000
00400000000000
01800000000000
06000000000000
08000000000000
30000000000000
C0000000000000
ENDCHAR
STARTCHAR 002A
ENCODING 42
SWIDTH 202 0
DWIDTH 17 0
BBX 11 9 5 44
BITMAP
2080
1100
1900
0A00
FFE0
0600
0980
08C0
0040
ENDCHAR
STARTCHAR 002B
ENCODING 43
SWIDTH 309 0
DWIDTH 26 0
BBX 17 17 8 1
BITMAP
000400
000400
000800
001000
001000
002000
004000
004000
FFFF80
008000
010000
020000
020000
040000
080000
080000
100000
ENDCHAR
STARTCHAR 002C
ENCODING 44
SWIDTH 214 0
DWIDTH 18 0
BBX 10 9 1 -6
BITMAP
00C0
01C0
0380
0700
0E00
1800
3000
4000
8000
ENDCHAR
STARTCHAR 002D
ENCODING 45
SWIDTH 333 0
DWIDTH 28 0
BBX 17 4 10 12
BITMAP
7E0080
838100
00F200
000C00
ENDCHAR
STARTCHAR 002E
ENCODING 46
SWIDTH 166 0
DWIDTH 14 0
BBX 4 4 5 -1
BITMAP
30
70
E0
E0
ENDCHAR
STARTCHAR 002F
ENCODING 47
SWIDTH 357 0
DWIDTH 30 0
BBX 29 51 12 0
BITMAP
00000018
00000010
00000030
00000020
00000060
000000C0
000000C0
00000180
00000180
00000300
00000300
00000600
00000400
00000C00
00000800
00001800
00001000
00003000
00006000
00006000
0000C000
0000C000
00018000
00018000
00030000
00020000
00060000
00040000
000C0000
00180000
00180000
00300000
00300000
00600000
00600000
00C00000
00C00000
01800000
01800000
03000000
02000000
06000000
0C000000
0C000000
18000000
18000000
30000000
30000000
60000000
60000000
C0000000
ENDCHAR
STARTCHAR 0030
ENCODING 48
SWIDTH 261 0
DWIDTH 22 0
BBX 19 22 4 0
BITMAP
0001C0
0007E0
000E20
003820
007020
00E020
01C040
038040
070080
0E0180
1C0300
380600
300400
600C00
401800
C03000
806000
80C000
838000
860000
FC0000
700000
ENDCHAR
STARTCHAR 0031
ENCODING 49
SWIDTH 261 0
DWIDTH 22 0
BBX 17 21 4 1
BITMAP
000080
000100
000200
000200
000400
000800
001000
003000
006000
01C000
028000
0C8000
010000
020000
040000
040000
080000
100000
200000
600000
C00000
ENDCHAR
STARTCHAR 0032
ENCODING 50
SWIDTH 261 0
DWIDTH 22 0
BBX 24 21 0 1
BITMAP
0000FE
000303
000403
001803
003083
002106
00420C
004418
003830
0000C0
000180
000E00
003000
00C000
030000
040000
180000
300000
600000
9FE000
007000
ENDCHAR
STARTCHAR 0033
ENCODING 51
SWIDTH 261 0
DWIDTH 22 0
BBX 29 34 -7 -11
BITMAP
00000040
000007B8
00001818
00002108
00004208
00008418
00010410
00010830
00011020
0000E080
00000100
00000600
00000800
00003000
0000C000
0007C000
00002000
00003000
00001000
00001800
00001000
00003000
00003000
00006000
00006000
0000C000
00018000
00030000
80060000
800C0000
80180000
80600000
41800000
3E000000
ENDCHAR
STARTCHAR 0034
ENCODING 52
SWIDTH 261 0
DWIDTH 22 0
BBX 29 31 0 -2
BITMAP
00000018
00000030
00000020
00000060
000000C0
00000180
00000300
00000600
00000C00
00000800
00001000
00002100
00006200
0000C400
00018800
00030800
00061000
000C2000
00184000
00704000
00E08000
01C10000
03020000
0E020000
7C040000
FFFFC000
00100000
00200000
00600000
00C00000
01800000
ENDCHAR
STARTCHAR 0035
ENCODING 53
SWIDTH 261 0
DWIDTH 22 0
BBX 33 34 -8 -9
BITMAP
0000008000
000001FF80
0000031E00
0000020000
0000040000
0000080000
0000100000
0000100000
0000200000
0000400000
0000400000
0000BC0000
0001C20000
0001010000
0002010000
0004010000
0008010000
0000030000
0000020000
0000060000
00000E0000
00000C0000
0000180000
0000380000
0000700000
0000E00000
0001C00000
4003800000
4006000000
800C000000
8030000000
4040000000
2380000000
1C00000000
ENDCHAR
STARTCHAR 0036
ENCODING 54
SWIDTH 261 0
DWIDTH 22 0
BBX 35 35 2 -1
BITMAP
0000000020
00000001C0
0000000600
0000001800
0000006000
0000018000
0000020000
00000C0000
0000300000
0000400000
0001800000
00030E0000
0006310000
000C410000
0030810000
0063010000
00C4020000
0188020000
0390040000
0320040000
0600080000
0C00100000
1800100000
1800200000
3000400000
3000800000
2001000000
6002000000
4004000000
4008000000
4010000000
8020000000
80C0000000
4300000000
2C00000000
ENDCHAR
STARTCHAR 0037
ENCODING 55
SWIDTH 261 0
DWIDTH 22 0
BBX 31 35 -4 -11
BITMAP
00001000
00002000
00004002
00005FFC
000060E8
00008008
00030010
00000020
00000040
00000080
00000100
00000200
00000C00
00001000
00002000
00004000
00008000
00010000
00020000
00040000
00080000
00100000
00200000
00400000
00800000
01000000
02000000
06000000
04000000
08000000
10000000
20000000
20000000
40000000
80000000
ENDCHAR
STARTCHAR 0038
ENCODING 56
SWIDTH 261 0
DWIDTH 22 0
BBX 34 34 1 -1
BITMAP
0000007C00
00000183C0
0000030100
0000040280
00000C0500
0000180900
0000181100
0000302200
0000304200
0000318400
0000620000
0000640000
0000780000
0000600000
0001E00000
0002600000
000C600000
0030600000
00C0600000
0100C00000
0200C00000
0C00C00000
1000800000
2001800000
2001000000
4001000000
4002000000
8004000000
8008000000
8010000000
8020000000
4040000000
2380000000
1C00000000
ENDCHAR
STARTCHAR 0039
ENCODING 57
SWIDTH 261 0
DWIDTH 22 0
BBX 35 36 -12 -14
BITMAP
00000003C0
0000000FE0
0000003820
0000006020
000001C020
0000038020
0000060060
00000C0040
0000180040
00003000C0
0000600080
0000C00180
0001800300
0001800300
0003000600
0006008E00
0004011C00
000C021800
0008043000
0008086000
001010C000
0010218000
0010430000
0009860000
0006180000
0000300000
0000400000
0001800000
0002000000
000C000000
0010000000
0060000000
0180000000
0600000000
1800000000
E000000000
ENDCHAR
STARTCHAR 003A
ENCODING 58
SWIDTH 238 0
DWIDTH 20 0
BBX 9 11 7 -1
BITMAP
0380
0780
0700
0600
0000
0000
0000
3000
7000
E000
E000
ENDCHAR
STARTCHAR 003B
ENCODING 59
SWIDTH 238 0
DWIDTH 20 0
BBX 14 16 2 -6
BITMAP
000C
001C
0038
0030
0000
0000
0000
00C0
0380
0700
0E00
0C00
1800
2000
4000
8000
ENDCHAR
STARTCHAR 003C
ENCODING 60
SWIDTH 214 0
DWIDTH 18 0
BBX 15 13 5 2
BITMAP
0006
003C
00E0
0780
1C00
F000
C000
F000
3C00
0700
01C0
0070
0018
ENDCHAR
STARTCHAR 003D
ENCODING 61
SWIDTH 309 0
DWIDTH 26 0
BBX 22 7 5 5
BITMAP
FFFFFC
000000
000000
000000
000000
000000
FFFFFC
ENDCHAR
STARTCHAR 003E
ENCODING 62
SWIDTH 214 0
DWIDTH 18 0
BBX 15 13 4 2
BITMAP
3000
1C00
0780
01E0
0078
001E
0006
001C
00F0
0380
1E00
7000
C000
ENDCHAR
STARTCHAR 003F
ENCODING 63
SWIDTH 404 0
DWIDTH 34 0
BBX 41 51 9 -1
BITMAP
000000003C00
00000001C300
000000060080
000000180080
000000600080
000000C00080
000001800080
000003000180
000004000180
000008008180
000018010300
000030010300
000020020600
000040040E00
000080040C00
000080081800
000100103800
000100207000
00020040E000
000200818000
000201030000
000202060000
00010C0C0000
0000F0100000
000000200000
000000C00000
000001000000
000002000000
00000C000000
000010000000
000060000000
000080000000
000100000000
000600000000
000800000000
001000000000
002000000000
004000000000
004000000000
008000000000
010000000000
020000000000
040000000000
000000000000
000000000000
000000000000
000000000000
300000000000
700000000000
E00000000000
C00000000000
ENDCHAR
STARTCHAR 0040
ENCODING 64
SWIDTH 345 0
DWIDTH 29 0
BBX 25 23 5 -2
BITMAP
0007FC00
00380700
00E00300
01800180
03000080
06079880
0C1FB080
1838E080
1060E180
30E0C100
20C18100
61838200
61830600
C3070C00
C30F1800
C3F7F000
C1E3C000
C0000000
60000000
70006000
38018000
1FFE0000
03E00000
ENDCHAR
STARTCHAR 0041
ENCODING 65
SWIDTH 845 0
DWIDTH 71 0
BBX 88 58 10 -9
BITMAP
0000000000000000000001
0000000000000000000006
000000000000000000001C
0000000000000000000028
00000000000000000000D8
0000000000000000000110
0000000000000000000620
0000000000078000000860
00000000007860000010C0
0000000001801000002180
000000000600100000C180
00000000180008FFE18300
0000000060000F001E0600
0000000080003800070C00
000000010000C800088C00
0000000400030800105800
0000000800041000203000
0000003000181000607000
0000004000202000C0F000
000000800040200180C800
0000030000804003018800
0000760000004006038800
001F8DF00000800C070800
00E0180F000080180E0800
03003001F00100300C0800
0C0060003E0200601C1000
1000C0000FC400C0381000
2000800001F80180702000
40018000007E0380E04000
80030000002F8700E08000
800600000043FE01C30000
8006000001807E038C0000
800C000002003FFFF00000
801800000400700F000000
801800001800E00E000000
803000006001C01C000000
8030000180038018000000
4060000600070038000000
20600018000E0070000000
10C000E0000C0060000000
0CC00F00001800C0100000
03BFF000003001C0200000
01C0000000600380400000
0180000000C00300400000
0180000001800600800000
0180000003000601000000
0100000006000C02000000
010000001C000804000000
0100000030001818000000
0100000060001860000000
01000000C0000D80000000
0180000300000600000000
0080000600000000000000
0040000800000000000000
0040002000000000000000
003000C000000000000000
000C070000000000000000
0003F80000000000000000
ENDCHAR
STARTCHAR 0042
ENCODING 66
SWIDTH 857 0
DWIDTH 72 0
BBX 69 58 15 -6
BITMAP
0000000000001FF000
000000000007E00F00
000000000078000180
000000000380000040
000000000C00000020
000007FE7000000030
000038018000000010
0000C0034000000018
0003000C2000000018
000C00301000003018
001000E01000004818
006001C01000018818
008003001000020818
01000E001000041038
02001C001000081030
020038001000102030
040070001000304070
0800C0002000604060
100180002000C080E0
1003000040018100C0
200600004003020180
200C00008003040180
401C00010006080300
40380001000C100600
403000020018600800
406000040018803000
80C000040031006000
818000080062018000
8180000000E40E0000
8300000000D8F00000
8600000001E1700000
8600000003C0180000
4C00000007800C0000
480000000700060000
580000000E00070000
300000001C00030000
300000003800030000
30000000F83F030000
2800000770C1070000
66000018E100870000
638000E0C600870000
40F00F01C8010F0000
400FF00390010E0000
4000000310021E0000
4000000620021C0000
4000000C40043C0000
400000184008380000
400000308010700000
400000208000E00000
400000410001C00000
400000810003800000
400001010007000000
20000601000E000000
10000C010018000000
100030010030000000
0C00400080C0000000
030380006F00000000
00FC00001000000000
ENDCHAR
STARTCHAR 0043
ENCODING 67
SWIDTH 535 0
DWIDTH 45 0
BBX 67 58 3 -6
BITMAP
000000000000000600
00000000000001F9C0
00000007FC000E0020
000000180380700020
000000600063800020
00000080001C000040
000003000018000080
000004000068000180
000008000184000200
000008000304000400
000010000404001800
000010001802006000
000020003002018000
000020006002060000
00004001C002380000
000040038003C00000
00004007001E000000
0000400E03E4000000
0000001C3E04000000
0000007FE004000000
000000FE0004000000
000003E00008000000
00000DC00008000000
000073800010000000
000187000010000000
00020F003FA0000000
000C0E00C060000000
00101C010060000000
006038060090000000
008038080110000000
010070100110000000
0200E0200210000000
0400E0200410000000
0801C0400810000000
100180801010000000
200381002010000000
400301004030000000
400302008020000000
400604010060000000
800604020040000000
8004000C00C0000000
800C00100080000000
800C00600180000000
400800800300000000
400803000300000000
20081C000600000000
100860000C00000000
0C1F80001800000000
03F000003000000000
001800002000000000
000800006000000000
000800008000000000
000800030000000000
000400060000000000
000400080000000000
000200300000000000
000181C00000000000
00007E000000000000
ENDCHAR
STARTCHAR 0044
ENCODING 68
SWIDTH 821 0
DWIDTH 69 0
BBX 80 58 8 -9
BITMAP
0000000001FFC0000000
000000003E003C000000
00000001C00003000000
00000006000000C00000
00000018000000200000
00000060000000180000
000001800000000C0000
000003000000000401F0
00000E00000000020E0C
00001C00000000013002
000030000001FE01C002
00006000000601018001
0000C0001F0800868000
0001C00060F0004C8000
00038000806000504000
0007000300A000604000
00060004012000604000
000C0008022000A04000
001C0010042001A04000
00180020042003204000
00300040082002204000
00300040082006204000
0060008010200C204000
00600100102018204000
00C00100202018204000
00C00200204030404000
00800400004070404000
018004000040E040C000
018008000080E080C000
010008000081C080C000
01000800010180818000
03001000010381018000
03001000020701018000
03001000020702030000
03001000040E02030000
02001000081C04070000
02001000081C08060000
020010001038080E0000
010010002078100C0000
010010004070201C0000
0100100080E040380000
0100100300C040700000
0080100401C080700000
00400818038200E00000
00400820070401C00000
003004C0060803800000
000C07000C3003000000
0003FA0018C006000000
0000018033000C000000
000000607C0018000000
0000001FC00070000000
0FE000030000E0000000
301F000E000180000000
4001F018000600000000
80001F70000C00000000
400003F0006000000000
20003C3FDF8000000000
1FFFC000200000000000
ENDCHAR
STARTCHAR 0045
ENCODING 69
SWIDTH 571 0
DWIDTH 48 0
BBX 61 58 8 -7
BITMAP
0000000000007F00
000000000007C0E0
00000000003C0018
0000000000E00008
0000000003800008
000007FE0E000008
000018019C000010
0000600078000020
0000800070000040
00010000F0000180
00010001C8000E00
0002000184003000
000400038403C000
00040003023C0000
0004000307C00000
00080007FA000000
0008001F01000000
000000E601000000
00000F0301000000
0000300301000000
0001C00301000000
0006000181000000
00180000E2000000
00200001FFE00000
00C0001E03800000
010000E002000000
0200030002000000
04000C0004000000
0800300004000000
1000E00008000000
1001C01F08000000
20030060F0000000
200E018030000000
401E020030000000
401C040058000000
4038080048000000
8070100088000000
807020010C000000
80E040020C000000
80C040040C000000
41C0800808000000
4180801018000000
4180806018000000
2380008030000000
3380030030000000
13000C0060000000
0F00700060000000
03078000C0000000
03F8000180000000
0300000100000000
0100000300000000
0180000400000000
0080000800000000
00C0003000000000
0060004000000000
0010018000000000
000E1E0000000000
0001E00000000000
ENDCHAR
STARTCHAR 0046
ENCODING 70
SWIDTH 726 0
DWIDTH 61 0
BBX 91 57 3 -8
BITMAP
00000000000000FC000007E0
000000000003FFFFF8003FE0
00000000003FFFFFFF80E020
0000000001F00001FFF10040
000000000F00000000FFFF80
000000003800000000100000
00000000E000000000600000
000000018000000000C00000
000000060000000001800000
0000000C0000000003000000
000000100000000006000000
000000600003F8000C000000
000000C0000C040018000000
000001800030040030000000
0000010000C0040060000000
0000020001000400C0000000
000004000200040180000000
000008000400080300000000
000018000800080300000000
000010001000080600000000
000020002000100C00000000
000020004000101C00000000
000040008000203810000000
000040008000207010000000
000080010000406010000000
00008002000080E020000000
00010002000081C040000000
00010004FFFFC38180000000
0001001FFFFFFFFE00000000
000200780004FFE000000000
0002018800080E0000000000
0002060800101E0000000000
0002081000201C0000000000
030230100040380000000000
040240100080700000000000
180280200300600000000000
100100200400E00000000000
200100201801C00000000000
400280206003800000000000
400260418003000000000000
80041C4E0006000000000000
800403F0000C000000000000
800400400018000000000000
800400400030000000000000
800400200060000000000000
8004002000C0000000000000
400400200100000000000000
400200200200000000000000
400200100400000000000000
200180101800000000000000
100070082000000000000000
10000008C000000000000000
0C0000070000000000000000
0200000E0002000000000000
018000F1000C000000000000
007C1F00E070000000000000
0003E0001F80000000000000
ENDCHAR
STARTCHAR 0047
ENCODING 71
SWIDTH 619 0
DWIDTH 52 0
BBX 83 81 -5 -28
BITMAP
0000000000000000003F80
000000000000000003C040
000000000003FE001C0020
00000000000C0180600020
0000000000300041800020
000000000040002E000040
0000000000800038000080
0000000001000070000100
00000000010001D0000200
0000000002000308000C00
0000000004000E08003000
0000000004001C0800C000
0000000008003008070000
000000000800E008380000
000000000801C00F800000
00000000000387F0000000
000000000007F810000000
00000000007E0010000000
00000000039C0010000000
000000001C380020000000
0000000060700020700000
0000000180E00040900000
0000000601C00041100000
0000001803800082100000
0000002007000084200000
000000C007000108400000
000001000E000208400000
000002001C000410800000
0000060038000421000000
0000040038000822000000
0000080070001042000000
00000800E0002044000000
00000800E0004088000000
00000801C0008090000000
00000801C0030120000000
0000080180040140000000
0000080380180240000000
0000080300200280000000
0000040300C00500000000
0000020603000600000000
000001061C000400000000
000000F7E0000800000000
0000000C00003800000000
0000000C00005000000000
0000000C00009000000000
0000000C00032000000000
0000000C00042000000000
0000000400182000000000
0000000400604000000000
0000000601804000000000
0000000306008000000000
00000000F8008000000000
0000000000010000000000
0000000000010000000000
0000000000020000000000
0000000000020000000000
0000000000040040000000
00000000000C0180000000
000000C000080600000000
0000FF3FFFFFF800000000
000F000000300000000000
0070000000200000000000
0180000000400000000000
0200000000C00000000000
0400000001800000000000
1800000003000000000000
3000000006000000000000
200000000C000000000000
4000000018000000000000
4000000030000000000000
8000000060000000000000
80000000C0000000000000
8000000180000000000000
8000000200000000000000
4000000C00000000000000
4000003000000000000000
4000004000000000000000
3000038000000000000000
08000C0000000000000000
0700F00000000000000000
00FF000000000000000000
ENDCHAR
STARTCHAR 0048
ENCODING 72
SWIDTH 869 0
DWIDTH 73 0
BBX 100 58 9 -9
BITMAP
000000000000000080000001E0
000000000000000FF0000007F0
000000000000003FF800001C10
00000000000000F01800003810
00000000000003800800006010
0000000000000600080000C020
00000000000008000800018020
00000000000390000800030040
00000000003C70000800060080
0000000001C0480018000C0080
00000000060088001800180100
00000000180104001800300200
00000000200104003000600400
00000000C00204003000E00800
00000001000204006001C01000
00000006000404006003802000
0000000800040400E00700C000
0000001000080400C006010000
0000002000080401C00C020000
00001FFFFFF00803801C0C0000
0003E0807FF808030038100000
001E0100006610070070600000
006002000021900600E1800000
0180040000205F0E01EE000000
0600080000203FFDFF90000000
0C001000002043FA0300000000
10003000002080300700000000
30002000002100600E00000000
20004000002600C00C00000000
4000C000002801C41800000000
40018000001001883800000000
40010000007003107000000000
80030000019006206000000000
4002000002080E40E000000000
400600000C081C81C000000000
400C000030063B018000000000
200C0000C0017C038000000000
200C00030000E0070000000000
1818001C0000C0060000000000
041800E00001800E0200000000
033807000003000C0400000000
00FFF800000600180800000000
00300000000C00180800000000
00300000001800301000000000
00300000003000202000000000
00300000006000604000000000
0030000000C000408000000000
00300000018000410000000000
00300000020000420000000000
00300000040000440000000000
00100000180000680000000000
00180000200000100000000000
00080000C00000000000000000
000C0001000000000000000000
00060006000000000000000000
00030038000000000000000000
0000E3C0000000000000000000
00001C00000000000000000000
ENDCHAR
STARTCHAR 0049
ENCODING 73
SWIDTH 821 0
DWIDTH 69 0
BBX 85 57 16 -7
BITMAP
00000000000000000007F8
0000000000000000007E00
0000000000000000078800
0000000000000000383000
0000000000000000C04000
0000000000000007008000
0000000000078018010000
0000000000787860020000
00000000038005C0040000
000000000C000300080000
0000000030000E00100000
00000000C0001A00200000
0000000100003200400000
0000000400006200C00000
000000080000C200800000
0000003000018201020000
0000006000030403020000
0000008000060406020000
00000300000C0804040000
00000600001C080C040000
00000E0000381018040000
000FFFC000701030080000
0070383F00E02030100000
01803000F8C04060200000
06006000078080E0400000
0800C00003FC80C1800000
1001C00003038186000000
2001800006067FF8000000
400300000E080300000000
400700000C100700000000
800600000C200E00000000
800E000018C00C00000000
800C000019001800000000
801800001E003800000000
8018000038003000000000
4018000070006000000000
20300001B000E000000000
103000063001C000000000
0860007830018000000000
0660038030030010000000
01E07C0030060020000000
007F800030060040000000
00600000300C0080000000
0040000018180100000000
0040000018300200000000
004000000C600400000000
004000000CC01800000000
0040000007802000000000
006000000301C000000000
0020000006FE0000000000
0020000018000000000000
0010000020000000000000
00180000C0000000000000
000C000300000000000000
0002001C00000000000000
0001C1E000000000000000
00003E0000000000000000
ENDCHAR
STARTCHAR 004A
ENCODING 74
SWIDTH 523 0
DWIDTH 44 0
BBX 97 79 -29 -30
BITMAP
0000000000000000000003FF80
000000000000000000003C6000
00000000000000000001C18000
0000000000000000000E020000
00000000000000000070040000
00000000000000000180080000
00000000000000000600100000
00000000000000001800200000
00000000000000007000400000
0000000000000000C000800000
00000000000000030001000000
00000000000000060002000000
000000000000000C0004000000
00000000000000300008000000
00000000000000600018000000
00000000000000C00010000000
00000000000001800020000000
00000000000003000060000000
000000000000060000C0000000
0000000000000E007F80000000
0000000000001C0181C0000000
00000000000018020340000000
00000000000030040240000000
00000000000060180640000000
00000000000060200C40000000
000000000000C0200840000000
000000000000C0401840000000
00000000000180803040000000
00000000000181002040000000
00000000000301006040000000
0000000000030200C080000000
00000000000602018080000000
00000000000604018080000000
00000000000404030100000000
00000000000408060100000000
00000000000C08060200000000
00000000000C080C0400000000
000000000008101C0400000000
00000000000800180800000000
00000000000800301000000000
00000000000800701000000000
00000000000800602000000000
00000000000800C04000000000
00000000000801C08000000000
00000000000801810000000000
00000000000403020000000000
00000000000407040000000000
0000000000020E180000000000
0000000000010C600000000000
000000000000DD800000000000
0000000000003E000000000000
00000000000030000000000000
00000000000070000000000000
000000000000E0000000000000
000000000000C0100000000000
00000000000180200000000000
00000000000300C00000000000
00001FF0000703000000000000
0007E00FFC0E1C000000000000
0038000003FFE0000000000000
00C00000001800000000000000
03000000003000000000000000
04000000006000000000000000
0800000000C000000000000000
10000000018000000000000000
20000000020000000000000000
40000000040000000000000000
40000000080000000000000000
40000000300000000000000000
80000000400000000000000000
80000001800000000000000000
80000002000000000000000000
4000000C000000000000000000
40000010000000000000000000
20000060000000000000000000
20000380000000000000000000
18000C00000000000000000000
0600F000000000000000000000
01FF0000000000000000000000
ENDCHAR
STARTCHAR 004B
ENCODING 75
SWIDTH 797 0
DWIDTH 67 0
BBX 103 56 3 -6
BITMAP
000000000007FFFF0000C0007C
0000000000780000FFFF000382
00000000018000000018000604
00000000060000000020001800
00000000180000000040007000
00000000600FC00007F000C000
00000000807030003B0C038000
0000000103800800C602070000
000000020C0008010C010C0000
00000002100004061800B80000
00000004400004083000700000
00000003800104106000E00000
00000002000608206001C00000
0000000E00080800C007400000
0000001900300801800C400000
00000060C0C010030030400000
000000C03F00100300C0400000
00000180000020060700400000
000003000000200C3800800000
00007E000000401DE000800000
001F8FFC000080181801000000
00E01C03C00180300402000000
030038003C0100700202000000
0400700003C200E0020C000000
08006000003C00C00210000000
1000C000000B81C00220000000
2001C00000107B8007C0000000
40038000002007FFFC00000000
40030000004006000C00000000
8007000000800E001800000000
8006000001001C003000000000
800C0000020018007000000000
401C00000C003000E000000000
4018000010007000C000000000
401800006000E0018000000000
203000018000C0038000000000
10300006000180070000000000
0C7000180003000E0000000000
036001E00006000C0200000000
00F87E00000400180400000000
00678000000800380800000000
00E00000001000301000000000
00C00000002000602000000000
00C00000004000404000000000
00C00000008000C08000000000
00C00000010000810000000000
00C00000020001820000000000
004000000C0001040000000000
00400000100001980000000000
00600000200000E00000000000
00200000C00000000000000000
00300003000000000000000000
0010000C000000000000000000
00080030000000000000000000
000703C0000000000000000000
0000FC00000000000000000000
ENDCHAR
STARTCHAR 004C
ENCODING 76
SWIDTH 892 0
DWIDTH 75 0
BBX 78 67 17 -19
BITMAP
000000000000000003F8
00000000000000000408
00000000000000001804
00000000000000002008
00000000000000004008
00000000000000008008
00000000000000010010
000003FFE00000020020
00007C001F8000040020
00038000007000080040
000C0000000E00180080
003000000001C0300080
00C00000000020200100
01000000000018600200
02000000000004C00400
04000000000003800800
08000000000001801000
10000000000003402000
10000000000006404000
20000000000006208000
2000001000000C110000
4000006000001C120000
400000800000180C0000
40000100000030180000
40000100000070240000
20000200000060C40000
200002000000E1040000
200004000001C6040000
10000400000188040000
080004000003B0040000
080004000003C0040000
04000400000700080000
03000400000E00080000
00800200003C00080000
0060020001DC00100000
001C02000E1800100000
00038100F03000200000
00007FFF006000200000
00000080006000400000
0000004000C000800000
00000020018001000000
00000018030006000000
00000006060018000000
00000001CC00E0000000
000000003FFF00000000
00000000300000000000
03E00000400000000000
1C3E0000800000000000
6003C003000000000000
80007004000000000000
80001C18000000000000
40000660000000000000
30000380000000000000
0F01FDC0000000000000
00FE0070000000000000
00000038000000000000
0000001C000000000000
00000007000000000000
00000003800000000000
00000001E00000000000
00000000700000000000
000000001C0000000000
000000000E0000000000
00000000038000000000
0000000000E000800000
00000000001C03000000
000000000003FC000000
ENDCHAR
STARTCHAR 004D
ENCODING 77
SWIDTH 964 0
DWIDTH 81 0
BBX 103 56 6 -7
BITMAP
00000000000000000000100002
00000000000000000000600004
00000000000000000000A00008
00000000000000000001400038
00000000000000000006400050
000000000000000000088000A0
00000000000000000010800140
00000000003FE0000021000640
0000000000C010000042000880
00000000070008000082001100
0000000018000BFF0104002300
0000000020001C00E204004600
00000000C00068001404018400
00000001000188000808020800
00000004000208001408041800
00000008000C08002410083000
00000030001010006410306000
0000006000201000C420404000
000000C000402000842080C000
00000180000020010461018000
00000300000040020446030000
000FFF800000400408C8060000
00700C7F000080081090060000
03801800FC01001021A00C0000
0C00300003E1002041C0180000
10006000001F00438300300000
2000C0000004FFFC0300700000
40018000000801800E00E00000
80038000003003003600C00000
80030000004002004C01C00000
80060000008004018C03800000
800E0000030008021807000000
800C00000400100C100E000000
8018000018002010300E000000
8018000020004020201C000000
40300000C000C0406038000000
2030000300018080C070000000
1020001C000301008070000000
086000600006020180E0000000
07400780000C040101C0000000
00FFF800001808020180C00000
00C00000003008040380800000
00C00000006010080701000000
0080000000C020080602000000
00800000018020100604000000
00800000030040200C08000000
00800000060040400C10000000
00800000080040800820000000
00800000300041000840000000
00800000400046000980000000
00400001800038000600000000
00400002000000000000000000
0020000C000000000000000000
00100030000000000000000000
000801C0000000000000000000
0007FE00000000000000000000
ENDCHAR
STARTCHAR 004E
ENCODING 78
SWIDTH 952 0
DWIDTH 80 0
BBX 105 58 13 -7
BITMAP
0000000000000000000000000F00
0000000000000000000000007080
0000000000000000000800018080
0000000000000000001000020080
00000000000000000030000C0080
0000000000000000005000100000
000000000000000000A000200000
0000000000000000012000C00000
00000000007FE000022001000000
0000000001801800044002000000
000000000E0007FC084004000000
0000000010003C03904008000000
000000006000C400608010000000
0000000180010400208020000000
0000000200060800508040000000
0000000400080800908080000000
0000001000100800918100000000
0000002000201001110200000000
0000004000401002110400000000
0000008000802004230400000000
0000030000002004230800000000
0000060000004008431000000000
003FFF0000008010422000000000
00C018F000008020864000000000
0700300F00010023068000000000
08003000F0020044070000000000
100060000F8400B8060000000000
2000C000007F83C00C0000000000
4001800000087F000C0000000000
4001800000100200180000000000
8003000000200400280000000000
8006000000C00C00480000000000
8006000001001800500000000000
800C000002003000900000000000
401800000C002001100000000000
4018000030004002200000000000
20300000C000C002200000000000
1030000300018004200000000000
0820001C00030008400000000000
066001E000060008400000000000
01E07E0000040010800000000000
005F800000080020800000000000
00C0000000100021000000000000
00C0000000200041000000000000
00C0000000400081000000000000
0080000000800082000000000000
0080000001000104000000000000
0080000002000104000000000000
008000000C000208000000000000
00C0000010000210000000000000
0040000020000220000000000000
00400000C00001C0000000000000
0020000100000000000000000000
0020000600000000000000000000
0010001800000000000000000000
000800E000000000000000000000
00070F0000000000000000000000
0000F00000000000000000000000
ENDCHAR
STARTCHAR 004F
ENCODING 79
SWIDTH 666 0
DWIDTH 56 0
BBX 58 57 13 -7
BITMAP
0000000000003F80
00000001FE01C040
0000000E01C20040
00000030002C0040
00000040003000C0
00000180004800C0
0000020000880140
0000020003040140
0000040006040240
000008000C040C40
0000100018041040
0000100030046080
0000200060058080
00002000C00E0080
0000400180F40100
0000400307040100
0000000678040100
0000000F80040200
000001F800080200
00000E3800080400
0000707000080400
0003806000100800
000C00C000101800
0010018000101000
0060038000203000
0080030000202000
0300060000404000
04000E000040C000
08000C0000808000
1000180000810000
1000380001030000
2000300002060000
4000600004040000
4000600004080000
8000C00008180000
8000C00010300000
8001800020200000
80018000C0600000
8003000100C00000
8003000201800000
8002000C01000000
8006003002000000
400600C004000000
2004030008000000
10041C0010000000
0E0DE00020000000
01FE000040000000
0008000080000000
0008000100000000
0008000200000000
0008000400000000
0008000800000000
0008003000000000
0004004000000000
0004018000000000
0003060000000000
0000F80000000000
ENDCHAR
STARTCHAR 0050
ENCODING 80
SWIDTH 607 0
DWIDTH 51 0
BBX 69 58 13 -6
BITMAP
0000000000001FFC00
000000000007E00300
0000000000380000C0
0000000001C0000020
000000FC0E00000030
00000703B000000010
00003800C000000018
0000C0032000000018
0003000C1000000008
000400181000007C08
001800601000008408
002000C00800010418
004001800800020418
008007000800040810
01000C000800080830
020018000800101020
040030000800202060
080060000800404040
1000C0001000C04080
100180001000808100
200300002001010200
200600002003020400
400C00004006040800
401800004004083000
40300000800C30C000
406000010018410000
8040000200308E0000
80C000040031700000
818000080062000000
8300000000CC000000
8200000001D0000000
8600000001E0000000
440000000380000000
480000000700000000
580000000E00000000
300000001C00000000
300000007800000000
30000001B800000000
280000067000000000
260000186000000000
410000E0C000000000
40E007018000000000
401FF8030000000000
400000030000000000
400000060000000000
4000000C0000000000
400000180000000000
400000300000000000
400000600000000000
400000C00000000000
400001000000000000
400002000000000000
200004000000000000
200018000000000000
100020000000000000
0C00C0000000000000
030700000000000000
00F800000000000000
ENDCHAR
STARTCHAR 0051
ENCODING 81
SWIDTH 738 0
DWIDTH 62 0
BBX 61 73 18 -23
BITMAP
00000000000001F0
0000000000000E08
0000000000003008
000000000000C008
0000000000010008
00000001FFE60008
0000000E00180010
0000007000340010
0000018000620020
0000020000810020
00000C0003008040
0000100006004080
000020000C004100
0000800018004100
0001000030004200
00020000E0002400
00040001C0002800
0004000380003000
0008000700002000
0010000E04006000
0020001C0800A000
0020001808014000
0040003010024000
0080006010024000
008000C020044000
0100018040088000
0100038040108000
0200070080218000
02000E0100410000
02000C0100830000
02001C0201020000
0400380402060000
0400300808040000
04007010100C0000
0400E02020080000
0200C04040180000
0201C18080300000
0301820200300000
01030C0400600000
0083300800C00000
0077C03001800000
000E004003800000
000E018003000000
000C020006000000
000C0C000C000000
000C100018000000
0008600030000000
0019800040000000
001A000080000000
001C000300000000
0038000600000000
00C8000800000000
0108003000000000
060800C000000000
1804030000000000
38020C0000000000
C7C1F00000000000
0030000000000000
000C000000000000
0007000000000000
0001800000000000
0000C00000000000
0000600000000000
0000380000000000
00001C0000000000
00000E0000000000
0000070000000000
0000038000040000
000000E000080000
0000007000100000
0000001C00200000
0000000700C00000
00000000FF000000
ENDCHAR
STARTCHAR 0052
ENCODING 82
SWIDTH 761 0
DWIDTH 64 0
BBX 69 70 11 -16
BITMAP
0000000000003FF800
000000000007C00700
000000000078000080
000000000380000040
000000F80C00000020
00000F077000000030
000030018000000010
0000C0064000000010
000300082000000018
000C00302000007818
001000601000018810
006001801000020810
008003001000040830
010006001000080830
02001C001000101020
040038001000202060
080060001000402040
1000C0001000404080
100180001000808100
200300002001010300
200600002003020400
400C00004002040800
401800004004081000
80300000800C102000
80700001001820C000
806000020010430000
80C0000400319C0000
818000080062E00000
8300000000C4400000
8200000000C8200000
8600000001B0200000
8400000003C0200000
880000000780100000
980000000600100000
500000000C00100000
700000001C00100000
200000007800100000
20000001B000100000
580000066000300000
44000018C000300000
430000E1C000200000
80C00F018000600000
803FF0030000600000
800000060000600000
8000000C0000E00000
800000180000C00000
800000300000C00000
800000600000C00000
800000C00001C00000
800001800001800000
800003000001800000
400006000001800000
400008000001800000
200010000001800000
100060000001800000
080180000001800000
070600000001000000
00F800000001000000
000000000001000000
000000000001000000
000000000001800000
000000000001800000
000000000001800000
000000000000800000
000000000000800020
000000000000C00040
000000000000400080
000000000000200300
000000000000100C00
0000000000000FF000
ENDCHAR
STARTCHAR 0053
ENCODING 83
SWIDTH 833 0
DWIDTH 70 0
BBX 79 58 14 -5
BITMAP
00000000000000000004
0000000000000000001A
00000000000000000022
001FC000000000000042
00603800000000000082
00800400000000000104
01000000000000000204
02000000000000000208
04000000000000000408
0800000001FC00000810
080000001E0300000820
08000000E000C0001040
10000003000040001080
1003FFCC000020002080
101C0038000020002100
10600064000010004200
108001C2000010004400
13000301000010008800
1400060080001000B000
08000C0040001001C000
08001C00400010010000
18003800200010030000
24003000200010060000
240060002000201E0000
4200E000200020260000
4101C000200020CC0000
408180002000430C0000
8043800000004C180000
802300000000B0180000
801F00000001C0380000
80060000001F00300000
800FC00003E100700000
800C3C007C0200600000
400C03FF800400E00000
40180000000800C00000
40180000001001C00000
20180000002001800000
20180000004003800000
10100000008003000000
08100000010006000000
04100000060006000000
0210000018000C000000
01100000600018000000
00D00001800010000000
0030000E000030000000
001F00F0000060000000
0008FF000000C0000000
00080000000180000000
00080000000300000000
00040000000400000000
00040000000800000000
00020000003000000000
00010000004000000000
00008000018000000000
000040000E0000000000
00003000700000000000
00000F8F800000000000
00000070000000000000
ENDCHAR
STARTCHAR 0054
ENCODING 84
SWIDTH 714 0
DWIDTH 60 0
BBX 92 59 3 -7
BITMAP
0000000000000000000007E0
00000000000001C000003810
000000000003F8FFE0006010
00000000003C0000FF818010
0000000001C0000007FF0020
0000000006000000007FC0C0
0000000018000000000BFF00
000000006000000000100000
000000018000000000200000
000000020000000000400000
0000000C0000000000800000
000000100000000001000000
000000200000000002000000
000000400003F80006000000
00000080000C04000C000000
000001000030040018000000
000002000040040030000000
000004000080040020000000
000008000300040040000000
000008000400040080000000
000010000800080180000000
000020001000080300000000
000020002000080600000000
000040002000100C00000000
000040004000200800000000
000080008000201800000000
000080010000403000000000
000080010000406000000000
00010002000080E000000000
00010002000101C000000000
000100040001018000000000
000100040002030000000000
000200080004070000000000
0002000800080E0000000000
0002001000101C0000000000
010200100020380000000000
020200100040380000000000
040100200180700000000000
080100200200E00000000000
100080200C01C00000000000
200080201001C00000000000
20004020E003800000000000
400030430007000000000000
40000FFC000E000000000000
40000040001C000000000000
800000400038000000000000
800000200070000000000000
8000002000E0000000000000
400000200180000000000000
400000200300000000000000
400000100600000000000000
200000100800000000000000
200000083000000000000000
100000084000000000000000
080000058000000000000000
040000060001000000000000
030000390006000000000000
00C003C0C018000000000000
003FFC003FE0000000000000
ENDCHAR
STARTCHAR 0055
ENCODING 85
SWIDTH 785 0
DWIDTH 66 0
BBX 68 71 15 -20
BITMAP
000000000180000000
000000007E7C000000
000000038002000000
0000001C0001000000
000000600000800000
000001800000800000
000006000000400000
000008000000400000
000030000000400000
0000C0000000400000
000180007800400070
000300078600400190
000E00180200C00210
001C00600100800420
003000800200800820
006003000201801040
00C004000203002040
01C008000203002080
018010000406004100
03002000040C008100
06004000080C010200
0C008001FC18010400
0C0100061230020400
180200082160040800
1002003020C00C1000
300400404180082000
200800808380102000
201001010780304000
401002020E80208000
402000021C80610000
402000043900C20000
804000087101820000
80800010E101840000
80800041C203080000
810000838203100000
810001070406200000
81000606040E200000
4200080C080C400000
42003018081C800000
2400C0381019000000
240300302032000000
1C1C00602034000000
07E000C04064000000
080000C08068000000
0800018100D0000000
0800010100E0000000
0800030201C0000000
080002040180000000
080002080180000000
080006100380000000
080004200F00000000
080004401300000000
040004802300000000
040005004700000000
020006008600000000
01001C030600000000
0080620C0600000000
007F81F00600000000
000000000400000000
000000000400000000
000000000400000000
000000000400000000
000000000400001000
000000000400002000
000000000400004000
000000000200008000
000000000200010000
000000000100060000
000000000080080000
000000000040700000
00000000003F800000
ENDCHAR
STARTCHAR 0056
ENCODING 86
SWIDTH 642 0
DWIDTH 54 0
BBX 83 58 15 -5
BITMAP
00000003F80003C0000000
0000003C07800C40003F80
000001C00040302000C040
00000E000030C040030020
0000380000090040040040
0000E00000060080080040
00038000000C0100300040
00070000001A0100400080
000C000000320600800080
0038000000620801000100
0070000000C21002000000
00E001FC00822004000000
01C006020182C008000000
0180180203030010000000
03002001020E0030000000
0600400106320020000000
0C0080010CC40040000000
0C0100010F040080000000
1802000138040100000000
10000001D8080200000000
3000000730080400000000
2000001A30100800000000
2000006270101000000000
4000008460202000000000
40000304E0204000000000
40000408C0408000000000
40000811C0810000000000
80001011C0820000000000
8000202181040000000000
8000404382080000000000
8000808384100000000000
4001010308200000000000
4001020710400000000000
4002040620800000000000
2002180641000000000000
1004200E82000000000000
0804C00D04000000000000
0607000E08000000000000
01FC001810000000000000
0004003820000000000000
000200D840000000000000
00018F3080000000000000
0000703100000000000000
0000006200000000000000
0000004400000000000000
0000004800000000000000
0000009000000000000000
000001A000000000000000
0000014000000000000000
0000028000000000000000
0000030000000000000000
0000060000000000000000
00000C0000000000000000
0000080000000000000000
0000100000000000000000
0000200000000000000000
0000400000000000000000
0000400000000000000000
ENDCHAR
STARTCHAR 0057
ENCODING 87
SWIDTH 1011 0
DWIDTH 85 0
BBX 97 58 32 -5
BITMAP
00000003F80003C00000000000
0000003C07800C40000000FE00
000001C0004030200000030100
00000E000030C04000000C0080
00003800000900400000100080
0000E000000600800000200100
00018000000C00800000400100
00070000001A01000001800200
000C0000003206000002000200
00380000006208000004000400
0070000000C210000008000000
00E001FC008220000010000000
01C006020182C0780020000000
01801802030301840060000000
03002001020E02040040000000
06004001063204080080000000
0C0080010CC408080100000000
0C0100010F0410080200000000
18020001380420100400000000
10000001D80820200800000000
30000007380840401000000000
2000001A301080402000000000
20000022701080804000000000
400000C4602101008000000000
40000304E02306010000000000
40000408E04208020000000000
40000811C08610040000000000
80001011C08420080000000000
80002021810C40100000000000
80004043820980200000000000
80008083841A00400000000000
40010103081400800000000000
40010207103801000000000000
40020406303002000000000000
20020806406004000000000000
1004300E806008000000000000
0804C00D01C010000000000000
0607000E02C020000000000000
01FC001804C040000000000000
00040038088080000000000000
000200D8108100000000000000
00018F30210200000000000000
00007030410400000000000000
00000060820800000000000000
00000041021000000000000000
00000042022000000000000000
0000008C044000000000000000
00000190048000000000000000
00000120090000000000000000
000002400A0000000000000000
00000280140000000000000000
00000500180000000000000000
00000E00300000000000000000
00000C00200000000000000000
00001800400000000000000000
00003000800000000000000000
00006001000000000000000000
00004000000000000000000000
ENDCHAR
STARTCHAR 0058
ENCODING 88
SWIDTH 821 0
DWIDTH 69 0
BBX 92 58 15 -6
BITMAP
000000000007FE00000007E0
000000000038018000001810
0000000001C0004000006000
000000000E00002000018000
000000003000001000020000
0000000040000010000C0000
000000010000001000100000
000000060000001000200000
0000000C0000001000400000
000000300000001000800000
00000060003F801003000000
000000C000C0403004000000
000001800300403008000000
000002000C00403010000000
000004001000406020000000
000008006000406040000000
000018008000806180000000
00003001000080E200000000
00006002000100C400000000
00004004000100C800000000
000080080002019000000000
00018010000201A000000000
00010020000403C000000000
000200400008030000000000
000200800008030000000000
000401000010060000000000
0004010000201E0000000000
0008020000402E0000000000
0008040000804C0000000000
0008040001009C0000000000
001008000201180000000000
001010000402380000000000
001010000804300000000000
001020001008300000000000
001020002010600000000000
001040004020600000000000
0010400180C0E00000000000
000880020100C00000000000
0008800C0200C00000000000
000500100401800800000000
000300600801801000000000
000187801001802000000000
000278006003004000000000
000200008083008000000000
01C200010102010000000000
060200020102010000000000
1802000C0202020000000000
200200100404040000000000
400200200804080000000000
400200C01002300000000000
800201002003C00000000000
800202004000000000000000
80010C008000000000000000
400130030000000000000000
4000C0040000000000000000
300740180000000000000000
0FF830600000000000000000
00000F800000000000000000
ENDCHAR
STARTCHAR 0059
ENCODING 89
SWIDTH 773 0
DWIDTH 65 0
BBX 76 80 9 -27
BITMAP
00000000003FF0000000
0000000001C00E000000
000000000E0001000000
00000000300000800000
00000000C00000800000
00000003000000800000
0000000C000000400000
00000018000000400000
00000060000000400000
000000C0000000400070
0000018000FE00400090
00000300030100400110
00000C000C0100800220
00001800300100800220
00003800C00100800440
00007001000101000840
0000E002000203001080
0000C00C000202001100
00018010000406002100
0003002000040C004200
00070040007818004400
00060080038E30008400
000C00800C1170010800
000C01001020E0011000
001802006041C0022000
0010040080C380044000
00300401008380044000
00300801010680088000
00201000020C80110000
00601000041880120000
00402000083880240000
00402000107080480000
0040400060E100480000
0040400081C100900000
00404001018100A00000
00408002030201400000
0040800C060202800000
004080100C0403000000
00210060080406000000
00110180180804000000
00090600101008000000
0007F800201018000000
00010000202030000000
00010000404050000000
000100004080A0000000
00010000810320000000
00010000820440000000
00010000841840000000
00010000982080000000
0000800060C080000000
000080007F0080000000
00004001800100000000
00003006000300000000
00000FF8000200000000
00000000000600000000
00000000000400000000
00000000000C00800000
00000000001803000000
00007FFE00180C000000
000F8001FF3070000000
0070000000FF80000000
01800000006000000000
0200000000C000000000
0C000000018000000000
10000000030000000000
20000000060000000000
400000000C0000000000
C0000000180000000000
80000000300000000000
80000000600000000000
80000000800000000000
80000003000000000000
80000004000000000000
80000018000000000000
80000060000000000000
40000180000000000000
20000600000000000000
18003800000000000000
078FC000000000000000
00700000000000000000
ENDCHAR
STARTCHAR 005A
ENCODING 90
SWIDTH 738 0
DWIDTH 62 0
BBX 66 59 17 -9
BITMAP
000000007C00000040
000000FFFFFC000380
00000700007FF83C00
0000380000007FD000
0000C0000000006000
000300000000008000
000C00000000010000
001000000007060000
0020001FC038E80000
0040006020C0100000
018001802000280000
010002002000480000
02000C002000840000
040010002001040000
080020002002040000
100040002004020000
100080004008020000
200100004010020000
200200008020020000
400200008040020000
400400010080020000
400800020100040000
800800020200040000
801000040400040000
801000080800040000
802000101000080000
802000202000080000
802000404000100000
802001808000100000
804002010000200000
804004020000200000
404018040000400000
404060080000800000
204180100000800000
184E00200001000000
07F000400002000000
004000800004000000
004001000008000000
002002000010000000
002004000060000000
001008000080000000
000810000300000000
000420000400000000
0002C0001800000000
00010000E000000000
0002F03F0000000000
00040FC00000000000
000800000000000000
003000000000000000
005F80000000000000
01A07C000000000000
060007800000000000
000001E00000000000
000000700000000000
0000003C0000000000
0000000F0001000000
00000003E00E000000
00000001FFF0000000
000000003F00000000
ENDCHAR
STARTCHAR 005B
ENCODING 91
SWIDTH 345 0
DWIDTH 29 0
BBX 33 72 17 -21
BITMAP
000000FF80
000000FF80
000001E000
000001C000
000001C000
0000038000
0000038000
0000078000
0000070000
0000070000
00000F0000
00000E0000
00000E0000
00001E0000
00001C0000
00001C0000
0000380000
0000380000
0000380000
0000700000
0000700000
0000700000
0000E00000
0000E00000
0000E00000
0001C00000
0001C00000
0001C00000
0003800000
0003800000
0007000000
0007000000
0007000000
000E000000
000E000000
000E000000
001C000000
001C000000
001C000000
0038000000
0038000000
0038000000
0070000000
0070000000
0060000000
00E0000000
00E0000000
00C0000000
01C0000000
01C0000000
0180000000
0380000000
0380000000
0700000000
0700000000
0700000000
0E00000000
0E00000000
0C00000000
1C00000000
1C00000000
1800000000
3800000000
3800000000
3000000000
7000000000
7000000000
6000000000
E000000000
C000000000
C000000000
3F00000000
ENDCHAR
STARTCHAR 005C
ENCODING 92
SWIDTH 773 0
DWIDTH 65 0
BBX 29 51 34 0
BITMAP
C0000000
C0000000
60000000
20000000
30000000
18000000
18000000
0C000000
0C000000
06000000
06000000
03000000
03000000
01800000
01800000
00C00000
00400000
00600000
00300000
00300000
00180000
00180000
000C0000
000C0000
00060000
00060000
00030000
00030000
00018000
00008000
0000C000
00006000
00006000
00003000
00003000
00001800
00001800
00000C00
00000C00
00000600
00000600
00000300
00000100
00000180
000000C0
000000C0
00000060
00000060
00000030
00000030
00000018
ENDCHAR
STARTCHAR 005D
ENCODING 93
SWIDTH 345 0
DWIDTH 29 0
BBX 33 72 11 -21
BITMAP
000000FF80
000000FF00
0000000300
0000000600
0000000600
0000000600
0000000C00
0000000C00
0000000C00
0000001800
0000001800
0000001800
0000003000
0000003000
0000003000
0000006000
0000006000
000000E000
000000C000
000000C000
000001C000
0000018000
0000018000
0000038000
0000030000
0000030000
0000060000
0000060000
0000060000
00000C0000
00000C0000
00001C0000
0000180000
0000180000
0000380000
0000300000
0000300000
0000700000
0000600000
0000600000
0000E00000
0000C00000
0000C00000
0001C00000
0001800000
0003800000
0003000000
0003000000
0007000000
0006000000
0006000000
000E000000
000C000000
000C000000
001C000000
0018000000
0018000000
0038000000
0030000000
0030000000
0070000000
0060000000
00E0000000
00E0000000
00C0000000
01C0000000
01C0000000
0180000000
0380000000
0300000000
0300000000
FC00000000
ENDCHAR
STARTCHAR 005E
ENCODING 94
SWIDTH 357 0
DWIDTH 30 0
BBX 10 8 16 27
BITMAP
0040
00C0
03C0
06C0
08C0
3040
4040
8000
ENDCHAR
STARTCHAR 005F
ENCODING 95
SWIDTH 369 0
DWIDTH 31 0
BBX 41 1 0 -10
BITMAP
FFFFFFFFFF80
ENDCHAR
STARTCHAR 0060
ENCODING 96
SWIDTH 142 0
DWIDTH 12 0
BBX 7 5 5 28
BITMAP
E0
70
3C
0E
02
ENDCHAR
STARTCHAR 0061
ENCODING 97
SWIDTH 226 0
DWIDTH 19 0
BBX 25 23 -1 2
BITMAP
00001800
00007C00
0000E480
00038500
00060700
000C0E00
00100C00
00201800
00403800
00807000
01006000
0200C000
04018000
08038180
08070200
100E0400
20140800
602C1000
40482000
40884000
83108000
4C130000
780C0000
ENDCHAR
STARTCHAR 0062
ENCODING 98
SWIDTH 190 0
DWIDTH 16 0
BBX 43 51 -3 1
BITMAP
0000000000C0
000000000320
000000000440
000000000840
000000001080
000000002080
000000004100
000000008200
000000010400
001FF0020800
01E00C021000
060000042000
180000084000
200000108000
400000210000
800000220000
8000004C0000
800000900000
800001A00000
800003C00000
400002000000
40000C000000
30007C000000
0C0798000000
03F810000000
000030000000
000060000000
000040000000
000082000000
00018D000000
000311000000
000222000000
000642000000
000C44000000
000884000000
001908000000
003108000000
002210000000
004220000000
00C240000000
008283000000
010284000000
010108000000
020330000000
0404C0000000
040800000000
081000000000
082000000000
104000000000
108000000000
0F0000000000
ENDCHAR
STARTCHAR 0063
ENCODING 99
SWIDTH 166 0
DWIDTH 14 0
BBX 20 22 1 0
BITMAP
000060
0001E0
000710
000C20
003040
006000
00C000
018000
030000
060000
0C0000
180040
100080
200100
200200
400400
400800
801000
806000
418000
7F0000
3C0000
ENDCHAR
STARTCHAR 0064
ENCODING 100
SWIDTH 226 0
DWIDTH 19 0
BBX 38 51 -1 -1
BITMAP
00000003F0
0000000C08
0000001008
0000006008
0000008004
0000018008
0000010008
0000020008
0000040008
0000040008
0000080010
0000100010
0000100030
0000200020
0000200060
0000200040
00004000C0
0000400080
0000000100
0000000300
0000000200
0000000600
0000000C00
0000000800
0000001800
0000003000
0000006000
00003C4000
0000C2C000
0001838000
0006030000
000C060000
0018040000
00300C0000
0060080000
00C0100000
0180200000
0300400000
0600800000
0401000000
0C02000000
1804000000
1008000000
2010000000
2020000000
4040000000
4080000000
8300000000
8400000000
5800000000
2000000000
ENDCHAR
STARTCHAR 0065
ENCODING 101
SWIDTH 178 0
DWIDTH 15 0
BBX 20 25 1 -4
BITMAP
000060
0001E0
0007A0
000E20
001C20
003840
006080
00C100
018600
031800
076000
078000
0C0000
180010
100020
300040
200080
600100
400200
400400
801800
802000
404000
418000
3E0000
ENDCHAR
STARTCHAR 0066
ENCODING 102
SWIDTH 142 0
DWIDTH 12 0
BBX 62 78 -23 -29
BITMAP
0000000000000008
0000000000000034
00000000000000C4
0000000000000108
0000000000000208
0000000000000410
0000000000000820
0000000000001040
0000000000002080
0000000000002100
0000001FFFC04300
000000E000008400
0000010000010800
0000060000021000
0000080000022000
0000180000044000
0000100000088000
0000100000130000
0000100000340000
0000100000380000
0000100000600000
0000080000C00000
0000040007800000
0000030079000000
000000FF83000000
0000000006000000
000000000C000000
000000000C000000
00000000F8000000
0000000134000000
0000000264000000
0000000464000000
00000000C4000000
0000000184000000
0000000188000000
0000000308000000
0000000610000000
0000000420000000
0000000C20000000
0000001840000000
0000003080000000
0000003100000000
0000006200000000
000000C400000000
000000C800000000
0000019000000000
0000032000000000
0000064000000000
0000068000000000
00000D0000000000
00001A0000000000
00001C0000000000
0000380000000000
0000700000000000
0000600000000000
0000C00000000000
0001800000000000
0003000000000000
0002000000000000
0006000000000000
000C000000000000
0008000000000000
0010000000000000
0030000000000000
0060000000000000
0040000000000000
0080000000000000
0180000000000000
0100000000000000
0200000000000000
0400000000000000
0400000000000000
0800000000000000
1000000000000000
3000000000000000
2000000000000000
4000000000000000
8000000000000000
ENDCHAR
STARTCHAR 0067
ENCODING 103
SWIDTH 226 0
DWIDTH 19 0
BBX 43 51 -18 -28
BITMAP
0000000003C0
000000001C20
000000006020
00000000C020
000000030040
000000060240
0000000C0680
000000380C00
000000701800
000000E03000
000001C02020
000001804040
000003008080
000006010100
00000E010200
00000C020400
000018040800
0000180C0800
000030181000
000020682000
000020904000
000021118000
00001E220000
000000240000
000000480000
000000500000
000000A00000
000000C00000
000001800000
000003000000
000006000000
00001E000000
000024000000
0000CC000000
000108000000
000610000000
000830000000
001020000000
006040000000
0080C0000000
030080000000
040100000000
080200000000
300400000000
400800000000
401000000000
802000000000
80C000000000
810000000000
460000000000
380000000000
ENDCHAR
STARTCHAR 0068
ENCODING 104
SWIDTH 226 0
DWIDTH 19 0
BBX 43 50 -4 0
BITMAP
0000000001C0
000000000220
000000000440
000000001840
000000002080
000000004100
000000008100
000000010200
000000020400
007FFC020800
038000041000
0C0000082000
100000104000
200000208000
400000230000
800000440000
800000880000
800000900000
800001600000
800003800000
400002000000
20001C000000
1000EC000000
0E1F08000000
01E010000000
000030000000
000060000000
000043800000
0000CC400000
000190400000
000120400000
0003C0800000
000700800000
000E01000000
000C03000000
001806000000
00300C000000
002018000000
006018100000
00C030200000
018060200000
0100C0400000
020080800000
060101000000
040202000000
08020C000000
100410000000
300820000000
200840000000
000580000000
ENDCHAR
STARTCHAR 0069
ENCODING 105
SWIDTH 95 0
DWIDTH 8 0
BBX 21 31 0 1
BITMAP
000018
000030
000030
000000
000000
000000
000000
000C00
000800
001800
003000
002000
006000
00C000
008000
010000
030000
060000
040400
0C0800
180800
101000
302000
204000
404000
408000
810000
820000
8C0000
F80000
600000
ENDCHAR
STARTCHAR 006A
ENCODING 106
SWIDTH 119 0
DWIDTH 10 0
BBX 50 59 -28 -27
BITMAP
00000000000040
000000000000C0
00000000000080
00000000000000
00000000000000
00000000001E00
00000000006100
00000000008100
00000000010200
00000000027200
00000000006200
0000000000E400
0000000001C800
00000000038800
00000000071000
00000000062000
000000000C2000
00000000184000
00000000308000
00000000210000
00000000420000
00000000840000
00000000880000
00000001100000
00000002200000
00000004400000
00000004800000
00000009000000
00000012000000
00000014000000
00000028000000
00000030000000
00000060000000
00000080000000
00000380000000
00000500000000
00001900000000
00002300000000
0000C200000000
00010600000000
00060C00000000
00080C00000000
00101800000000
00203000000000
00C03000000000
01006000000000
0200C000000000
0400C000000000
08018000000000
10030000000000
10060000000000
200C0000000000
40180000000000
40100000000000
80600000000000
80800000000000
81000000000000
86000000000000
78000000000000
ENDCHAR
STARTCHAR 006B
ENCODING 107
SWIDTH 214 0
DWIDTH 18 0
BBX 43 51 -2 0
BITMAP
0000000000C0
000000000320
000000000C40
000000001040
000000002080
000000004080
000000008100
000000010200
000000020400
000000040800
000000081000
000000082000
000000104000
000000208000
000000410000
000000460000
000000880000
000001100000
000003600000
000002800000
000007000000
00000C000000
000038000000
0000D0000000
000130000000
000660000000
000840000000
001080000000
002180E00000
002303200000
004204200000
008408400000
008C10000000
011820000000
011040000000
013084000000
016308000000
00DF10000000
00C1A0000000
0180C0400000
034180800000
023F80800000
060181000000
0C0302000000
180604000000
100C08000000
301C10000000
601820000000
401040000000
801180000000
001E00000000
ENDCHAR
STARTCHAR 006C
ENCODING 108
SWIDTH 95 0
DWIDTH 8 0
BBX 42 51 -3 1
BITMAP
0000000001C0
000000000240
000000000440
000000001840
000000002080
000000004100
000000008200
000000008200
000000010400
007FFC020800
038000041000
0C0000082000
100000104000
200000118000
400000220000
800000440000
800000C80000
800000B00000
800001400000
800003800000
400006000000
40003C000000
3001C8000000
0E3E18000000
01C030000000
000060000000
000040000000
0000C0000000
000180000000
000100000000
000300000000
000600000000
000C00000000
000800000000
001800000000
003000000000
006000000000
004040000000
00C080000000
018080000000
010100000000
030200000000
020200000000
040400000000
040800000000
081000000000
102000000000
104000000000
108000000000
0F0000000000
0E0000000000
ENDCHAR
STARTCHAR 006D
ENCODING 109
SWIDTH 416 0
DWIDTH 35 0
BBX 37 25 5 -4
BITMAP
0018000000
007C0E01C0
00FC1F07E0
01C4610C20
0304C11020
0208836020
040902C040
080A0680C0
10140D0180
10380E0300
20301C0700
4060380E00
80C0301C08
0080601810
0180C03020
0300C06040
060180C040
0403018080
0C06030100
1806020200
100C060400
3018040800
6010083000
4030084000
8060078000
ENDCHAR
STARTCHAR 006E
ENCODING 110
SWIDTH 309 0
DWIDTH 26 0
BBX 27 25 5 -4
BITMAP
00180000
007C0700
00FC1F80
01C43080
03084080
06088100
04090100
080A0200
10140600
20380C00
20300800
40601000
80C02020
00804040
0180C080
03018080
06030100
06060200
0C0C0400
18080800
10181000
30102000
6010C000
C0310000
801E0000
ENDCHAR
STARTCHAR 006F
ENCODING 111
SWIDTH 214 0
DWIDTH 18 0
BBX 23 21 1 0
BITMAP
000038
0000FC
000384
000E0C
001C08
007808
00F010
01A020
034040
064040
084082
108104
308218
208420
404840
803380
805C00
808000
810000
860000
F80000
ENDCHAR
STARTCHAR 0070
ENCODING 112
SWIDTH 202 0
DWIDTH 17 0
BBX 61 56 -39 -30
BITMAP
00000000000000E0
0000000000000310
0000000000000C08
0000000000001008
0000000000006088
0000000000008308
0000000000010C10
0000000000011010
0000000000002010
0000000000004020
0000000000008060
0000000000010040
00000000000300C0
0000000000060180
00000000000C0100
0000000000080300
0000000000180600
0000000000300C00
0000000000201800
0000000000601000
0000000000C02000
0000000000804000
0000000001808000
0000000003010000
0000000003040000
0000000006980000
000000000C600000
000000000C000000
0000000018000000
0000000030000000
0000000030000000
0000000060000000
00000000C0000000
00000000C0000000
0000000180000000
0000000100000000
0000000300000000
0000000600000000
0000000400000000
0000000800000000
0000001800000000
0000001000000000
0000002000000000
0000004000000000
0000008000000000
0000008000000000
0000010000000000
0000060000000000
0000080000000000
0000100000000000
0000200000000000
8000C00000000000
4001000000000000
200E000000000000
1CF0000000000000
0300000000000000
ENDCHAR
STARTCHAR 0071
ENCODING 113
SWIDTH 226 0
DWIDTH 19 0
BBX 37 51 -12 -29
BITMAP
00000001F0
00000007D8
0000001E08
0000003808
000000E008
000001C048
0000038088
0000070110
00000E0310
00001C0E00
0000383600
000070CD00
0000E11900
0000C23200
0001847200
0003006200
000200C400
0006018400
0004078800
00040F0800
0008161000
0008662000
00058C4000
0002188000
0000110000
0000320000
0000640000
0000480000
0000D00000
0001A00000
0003400000
0002800000
0007000000
000E000000
000C000000
0018000000
0030000000
0060000000
0040000000
00C0000000
0180000000
0100000000
0200000000
0600000000
0400000000
0800000000
1000000000
2000000000
2000000000
4000000000
8000000000
ENDCHAR
STARTCHAR 0072
ENCODING 114
SWIDTH 190 0
DWIDTH 16 0
BBX 15 30 6 1
BITMAP
0008
0018
0030
0020
0040
00C0
0080
0100
0100
06FC
040C
080C
1018
2018
4030
4060
80C0
0180
0302
0602
0C04
1808
3010
2020
6040
4080
8100
8200
8C00
F000
ENDCHAR
STARTCHAR 0073
ENCODING 115
SWIDTH 226 0
DWIDTH 19 0
BBX 25 33 2 1
BITMAP
00000080
00000100
00000300
00000600
00000C00
00000800
00001800
00003000
00002000
00004000
00004000
0001C000
00024000
0002C000
0004C000
00088000
00108000
01E18000
06518000
08918000
11118000
20130000
20230000
40230000
40460000
40460000
808C0000
81080000
80180000
80300000
40600000
63800000
3E000000
ENDCHAR
STARTCHAR 0074
ENCODING 116
SWIDTH 107 0
DWIDTH 9 0
BBX 24 38 0 1
BITMAP
000001
000003
000006
000004
00000C
000018
000010
000020
000060
0000C0
000080
000180
000300
000200
000600
003D00
001800
001000
003000
006000
004000
008000
018000
010000
020000
060000
040400
080800
101000
101000
202000
204000
408000
810000
830000
860000
F80000
700000
ENDCHAR
STARTCHAR 0075
ENCODING 117
SWIDTH 297 0
DWIDTH 25 0
BBX 26 25 6 -1
BITMAP
00080000
00760080
00820180
01060300
02040600
040C0400
08180C00
10301800
20603000
40E02000
81C06000
0380C040
03018080
06010100
0C030200
18060400
300C0400
30140800
60281000
40482000
C0904000
81108000
86090000
58060000
20000000
ENDCHAR
STARTCHAR 0076
ENCODING 118
SWIDTH 285 0
DWIDTH 24 0
BBX 24 21 6 0
BITMAP
00100C
00781E
008824
030844
040884
081108
102210
204210
40C420
818440
030881
060902
0C0904
080A08
100430
200CC0
401300
406000
408000
430000
7C0000
ENDCHAR
STARTCHAR 0077
ENCODING 119
SWIDTH 404 0
DWIDTH 34 0
BBX 34 25 6 -1
BITMAP
0008000000
0076008380
0082018C80
0106031100
0204061100
040C042200
08180C4200
1030184400
2070308400
40E0208800
81C0608800
0380C11000
0301813040
0601012080
0C03024100
1806028200
300C028400
2014011800
602806E000
4048080000
C090100000
8110600000
8608800000
5807000000
2000000000
ENDCHAR
STARTCHAR 0078
ENCODING 120
SWIDTH 285 0
DWIDTH 24 0
BBX 33 26 0 -4
BITMAP
0000180000
00003C0380
00007C0780
0000C41C80
0001843080
0001046380
000204C300
0004098000
0008090000
00380A0000
00D41C0000
0326180000
0404300200
0804200400
1008600800
1010E01000
2021402000
4002C04000
4004808000
8008810000
8030820000
8041040000
8081080000
4101100000
2E00E00000
1000000000
ENDCHAR
STARTCHAR 0079
ENCODING 121
SWIDTH 285 0
DWIDTH 24 0
BBX 42 50 -12 -30
BITMAP
0000001F00C0
000000610180
000000810180
000001030300
000002020600
000004040E00
0000080C0C00
000010181800
000020303000
000020603000
000040C06000
00000180C040
000003008080
000006010100
000004020200
00000C020400
000018040400
000030080800
000020181000
000020702000
000040A04000
000041208000
000026410000
000018460000
000000880000
000000900000
000000A00000
000001C00000
000001000000
000006000000
00000C000000
000034000000
0000C8000000
000108000000
000610000000
000820000000
003040000000
0040C0000000
008080000000
030100000000
040200000000
080400000000
100800000000
201000000000
402000000000
404000000000
808000000000
830000000000
840000000000
780000000000
ENDCHAR
STARTCHAR 007A
ENCODING 122
SWIDTH 214 0
DWIDTH 18 0
BBX 43 53 -20 -32
BITMAP
000000000700
000000001F80
000000003D80
000000006080
00000000C080
000000018080
000000030080
000000060100
000000040100
000000080200
000000100600
000000200400
000000400800
000000001020
000000002040
000000004080
000000018080
000000060100
000000180200
000000E00400
000001100800
000000081000
000000082000
000000044000
000000048000
000000050000
000000060000
000000040000
0000001C0000
000000680000
000000880000
000003100000
000004100000
000018200000
000020200000
0000C0400000
000100800000
000600800000
000801000000
003002000000
004004000000
018008000000
020010000000
040020000000
080040000000
100080000000
200300000000
400400000000
401800000000
802000000000
80C000000000
430000000000
3C0000000000
ENDCHAR
STARTCHAR 007B
ENCODING 123
SWIDTH 285 0
DWIDTH 24 0
BBX 20 73 5 -22
BITMAP
0000F0
0003F0
000700
000C00
001800
001800
003000
003000
007000
006000
006000
006000
006000
006000
006000
006000
006000
006000
006000
006000
006000
006000
006000
006000
006000
006000
006000
006000
00E000
00C000
00C000
00C000
018000
030000
0E0000
3C0000
E00000
F00000
3C0000
0E0000
030000
018000
01C000
00C000
00C000
00E000
006000
006000
006000
006000
006000
006000
006000
006000
006000
006000
006000
006000
006000
006000
006000
006000
006000
006000
006000
003000
003000
003000
001800
000800
000400
000300
0000E0
ENDCHAR
STARTCHAR 007C
ENCODING 124
SWIDTH 119 0
DWIDTH 10 0
BBX 1 66 7 -15
BITMAP
80
80
80
80
80
80
80
80
80
80
80
80
80
80
80
80
80
80
80
80
80
80
80
80
80
80
80
80
80
80
80
80
80
80
80
80
80
80
80
80
80
80
80
80
80
80
80
80
80
80
80
80
80
80
80
80
80
80
80
80
80
80
80
80
80
80
ENDCHAR
STARTCHAR 007D
ENCODING 125
SWIDTH 285 0
DWIDTH 24 0
BBX 20 73 5 -22
BITMAP
F00000
FC0000
0E0000
030000
018000
018000
00C000
00C000
00C000
006000
006000
006000
006000
006000
006000
006000
006000
006000
006000
006000
006000
006000
006000
006000
006000
006000
006000
006000
006000
007000
003000
003000
001800
000C00
000600
0003C0
0000F0
0000F0
0003C0
000600
000C00
001800
003000
003000
003000
006000
006000
006000
006000
006000
006000
006000
006000
006000
006000
006000
006000
006000
006000
006000
006000
006000
006000
006000
006000
00C000
00C000
008000
018000
010000
020000
0C0000
700000
ENDCHAR
STARTCHAR 007E
ENCODING 126
SWIDTH 404 0
DWIDTH 34 0
BBX 14 3 17 27
BITMAP
7E04
8388
00F0
ENDCHAR
STARTCHAR 00A0
ENCODING 160
SWIDTH 476 0
DWIDTH 40 0
BBX 0 0 0 0
BITMAP
ENDCHAR
STARTCHAR 00A2
ENCODING 162
SWIDTH 166 0
DWIDTH 14 0
BBX 20 27 1 -3
BITMAP
000040
000080
0000E0
000310
000520
000A60
003200
006400
00C400
018800
030800
061000
0C2000
182040
184080
304100
208100
608200
410400
410800
823000
824000
848000
4B0000
3C0000
100000
100000
ENDCHAR
STARTCHAR 00A3
ENCODING 163
SWIDTH 440 0
DWIDTH 37 0
BBX 46 33 -4 -3
BITMAP
0000000000F0
000000000308
000000000C04
000000001004
000000002004
000000004004
000000008004
000000008004
000000010008
000000021808
000000062008
0000000C4010
000000088010
000000190020
000000320060
000000620040
000000640080
000000C43100
0007FFC8C100
001801FF0200
002003080400
004003080800
004006083000
00400C044000
004018038000
002018000000
000030000000
000060000000
1FC0C0000000
603D80000000
800780000000
4009F0080000
3FF03FF00000
ENDCHAR
STARTCHAR 00A8
ENCODING 168
SWIDTH 392 0
DWIDTH 33 0
BBX 12 4 17 26
BITMAP
2030
6070
E070
C060
ENDCHAR
STARTCHAR 00AB
ENCODING 171
SWIDTH 273 0
DWIDTH 23 0
BBX 16 11 14 21
BITMAP
0041
0081
0306
060C
1870
E1C0
C180
60C0
2040
1040
1020
ENDCHAR
STARTCHAR 00B4
ENCODING 180
SWIDTH 321 0
DWIDTH 27 0
BBX 7 6 16 26
BITMAP
06
0E
1C
38
60
80
ENDCHAR
STARTCHAR 00B6
ENCODING 182
SWIDTH 500 0
DWIDTH 42 0
BBX 36 44 8 -11
BITMAP
0000001800
0000006400
0000008400
0000010400
0000020800
0000060800
0000041000
00000C2000
0000084000
0000098040
00001E03B0
0000300400
0001D01800
0006102000
0018104000
0060304000
0180308000
0200310000
0400320000
1800340000
1000380000
2000300000
6000300000
4000300000
C000300000
C000300000
8000700000
8000B00000
8001200000
C002200000
400C200000
2010200000
2060400000
1F80400000
0000800000
0000800000
0001000000
0001000000
4002000000
4004000000
2008000000
1010000000
0CE0000000
0300000000
ENDCHAR
STARTCHAR 00B7
ENCODING 183
SWIDTH 214 0
DWIDTH 18 0
BBX 11 11 5 -12
BITMAP
0400
0800
1000
1FC0
20E0
0060
0060
0060
00E0
C3C0
3F80
ENDCHAR
STARTCHAR 00BB
ENCODING 187
SWIDTH 250 0
DWIDTH 21 0
BBX 17 12 3 19
BITMAP
020400
020400
010200
010200
018300
00C180
03C780
061C00
183000
306000
408000
810000
ENDCHAR
STARTCHAR 00C0
ENCODING 192
SWIDTH 845 0
DWIDTH 71 0
BBX 89 66 10 -8
BITMAP
000000000000000000003800
000000000000000000003C00
000000000000000000000E00
000000000000000000000300
000000000000000000000080
000000000000000000000000
000000000000000000000000
000000000000000000000000
000000000000000000000100
000000000000000000000600
000000000000000000001C00
000000000000000000002800
00000000000000000000D800
000000000000000000011000
000000000000000000062000
000000000007800000086000
00000000007860000010C000
000000000180100000218000
000000000600100000C18000
00000000180008FFE1830000
0000000060000F001E060000
0000000080003800070C0000
000000010000C800088C0000
000000040003080010580000
000000080004100020300000
000000300018100060700000
0000004000202000C0F00000
000000800040200180C80000
000003000080400301880000
000076000000400603880000
001F8DF00000800C07080000
00E0180F000080180E080000
03003001F00100300C080000
0C0060003E0200601C100000
1000C0000FC400C038100000
2000800001F8018070200000
40018000007E0380E0400000
80030000002F8700E0800000
800600000043FE01C3000000
8006000001807E038C000000
800C000002003FFFF0000000
801800000400700F00000000
801800001800E00E00000000
803000006001C01C00000000
803000018003801800000000
406000060007003800000000
20600018000E007000000000
10C000E0000C006000000000
0CC00F00001800C010000000
03BFF000003001C020000000
01C000000060038040000000
0180000000C0030040000000
018000000180060080000000
018000000300060100000000
0100000006000C0200000000
010000001C00080400000000
010000003000181800000000
010000006000186000000000
01000000C0000D8000000000
018000030000060000000000
008000060000000000000000
004000080000000000000000
004000200000000000000000
003000C00000000000000000
000C07000000000000000000
0003F8000000000000000000
ENDCHAR
STARTCHAR 00C1
ENCODING 193
SWIDTH 845 0
DWIDTH 71 0
BBX 93 66 10 -8
BITMAP
000000000000000000000038
000000000000000000000078
0000000000000000000000E0
0000000000000000000001C0
000000000000000000000300
000000000000000000000000
000000000000000000000000
000000000000000000000000
000000000000000000000100
000000000000000000000600
000000000000000000001C00
000000000000000000002800
00000000000000000000D800
000000000000000000011000
000000000000000000062000
000000000007800000086000
00000000007860000010C000
000000000180100000218000
000000000600100000C18000
00000000180008FFE1830000
0000000060000F001E060000
0000000080003800070C0000
000000010000C800088C0000
000000040003080010580000
000000080004100020300000
000000300018100060700000
0000004000202000C0F00000
000000800040200180C80000
000003000080400301880000
000076000000400603880000
001F8DF00000800C07080000
00E0180F000080180E080000
03003001F00100300C080000
0C0060003E0200601C100000
1000C0000FC400C038100000
2000800001F8018070200000
40018000007E0380E0400000
80030000002F8700E0800000
800600000043FE01C3000000
8006000001807E038C000000
800C000002003FFFF0000000
801800000400700F00000000
801800001800E00E00000000
803000006001C01C00000000
803000018003801800000000
406000060007003800000000
20600018000E007000000000
10C000E0000C006000000000
0CC00F00001800C010000000
03BFF000003001C020000000
01C000000060038040000000
0180000000C0030040000000
018000000180060080000000
018000000300060100000000
0100000006000C0200000000
010000001C00080400000000
010000003000181800000000
010000006000186000000000
01000000C0000D8000000000
018000030000060000000000
008000060000000000000000
004000080000000000000000
004000200000000000000000
003000C00000000000000000
000C07000000000000000000
0003F8000000000000000000
ENDCHAR
STARTCHAR 00C2
ENCODING 194
SWIDTH 845 0
DWIDTH 71 0
BBX 92 69 10 -8
BITMAP
000000000000000000000010
000000000000000000000030
0000000000000000000000F0
0000000000000000000001B0
000000000000000000000230
000000000000000000000C10
000000000000000000003010
000000000000000000000010
000000000000000000000000
000000000000000000000000
000000000000000000000000
000000000000000000000100
000000000000000000000600
000000000000000000001C00
000000000000000000002800
00000000000000000000D800
000000000000000000011000
000000000000000000062000
000000000007800000086000
00000000007860000010C000
000000000180100000218000
000000000600100000C18000
00000000180008FFE1830000
0000000060000F001E060000
0000000080003800070C0000
000000010000C800088C0000
000000040003080010580000
000000080004100020300000
000000300018100060700000
0000004000202000C0F00000
000000800040200180C80000
000003000080400301880000
000076000000400603880000
001F8DF00000800C07080000
00E0180F000080180E080000
03003001F00100300C080000
0C0060003E0200601C100000
1000C0000FC400C038100000
2000800001F8018070200000
40018000007E0380E0400000
80030000002F8700E0800000
800600000043FE01C3000000
8006000001807E038C000000
800C000002003FFFF0000000
801800000400700F00000000
801800001800E00E00000000
803000006001C01C00000000
803000018003801800000000
406000060007003800000000
20600018000E007000000000
10C000E0000C006000000000
0CC00F00001800C010000000
03BFF000003001C020000000
01C000000060038040000000
0180000000C0030040000000
018000000180060080000000
018000000300060100000000
0100000006000C0200000000
010000001C00080400000000
010000003000181800000000
010000006000186000000000
01000000C0000D8000000000
018000030000060000000000
008000060000000000000000
004000080000000000000000
004000200000000000000000
003000C00000000000000000
000C07000000000000000000
0003F8000000000000000000
ENDCHAR
STARTCHAR 00C3
ENCODING 195
SWIDTH 845 0
DWIDTH 71 0
BBX 95 64 10 -8
BITMAP
000000000000000000001F80
0000000000000000000060E6
000000000000000000000078
000000000000000000000000
000000000000000000000000
000000000000000000000000
000000000000000000000100
000000000000000000000600
000000000000000000001C00
000000000000000000002800
00000000000000000000D800
000000000000000000011000
000000000000000000062000
000000000007800000086000
00000000007860000010C000
000000000180100000218000
000000000600100000C18000
00000000180008FFE1830000
0000000060000F001E060000
0000000080003800070C0000
000000010000C800088C0000
000000040003080010580000
000000080004100020300000
000000300018100060700000
0000004000202000C0F00000
000000800040200180C80000
000003000080400301880000
000076000000400603880000
001F8DF00000800C07080000
00E0180F000080180E080000
03003001F00100300C080000
0C0060003E0200601C100000
1000C0000FC400C038100000
2000800001F8018070200000
40018000007E0380E0400000
80030000002F8700E0800000
800600000043FE01C3000000
8006000001807E038C000000
800C000002003FFFF0000000
801800000400700F00000000
801800001800E00E00000000
803000006001C01C00000000
803000018003801800000000
406000060007003800000000
20600018000E007000000000
10C000E0000C006000000000
0CC00F00001800C010000000
03BFF000003001C020000000
01C000000060038040000000
0180000000C0030040000000
018000000180060080000000
018000000300060100000000
0100000006000C0200000000
010000001C00080400000000
010000003000181800000000
010000006000186000000000
01000000C0000D8000000000
018000030000060000000000
008000060000000000000000
004000080000000000000000
004000200000000000000000
003000C00000000000000000
000C07000000000000000000
0003F8000000000000000000
ENDCHAR
STARTCHAR 00C4
ENCODING 196
SWIDTH 845 0
DWIDTH 71 0
BBX 94 64 10 -8
BITMAP
00000000000000000000181C
00000000000000000000381C
000000000000000000003018
000000000000000000000000
000000000000000000000000
000000000000000000000000
000000000000000000000100
000000000000000000000600
000000000000000000001C00
000000000000000000002800
00000000000000000000D800
000000000000000000011000
000000000000000000062000
000000000007800000086000
00000000007860000010C000
000000000180100000218000
000000000600100000C18000
00000000180008FFE1830000
0000000060000F001E060000
0000000080003800070C0000
000000010000C800088C0000
000000040003080010580000
000000080004100020300000
000000300018100060700000
0000004000202000C0F00000
000000800040200180C80000
000003000080400301880000
000076000000400603880000
001F8DF00000800C07080000
00E0180F000080180E080000
03003001F00100300C080000
0C0060003E0200601C100000
1000C0000FC400C038100000
2000800001F8018070200000
40018000007E0380E0400000
80030000002F8700E0800000
800600000043FE01C3000000
8006000001807E038C000000
800C000002003FFFF0000000
801800000400700F00000000
801800001800E00E00000000
803000006001C01C00000000
803000018003801800000000
406000060007003800000000
20600018000E007000000000
10C000E0000C006000000000
0CC00F00001800C010000000
03BFF000003001C020000000
01C000000060038040000000
0180000000C0030040000000
018000000180060080000000
018000000300060100000000
0100000006000C0200000000
010000001C00080400000000
010000003000181800000000
010000006000186000000000
01000000C0000D8000000000
018000030000060000000000
008000060000000000000000
004000080000000000000000
004000200000000000000000
003000C00000000000000000
000C07000000000000000000
0003F8000000000000000000
ENDCHAR
STARTCHAR 00C5
ENCODING 197
SWIDTH 845 0
DWIDTH 71 0
BBX 94 69 10 -8
BITMAP
00000000000000000000003C
0000000000000000000000C4
000000000000000000000184
000000000000000000000104
000000000000000000000208
000000000000000000000218
000000000000000000000210
000000000000000000000160
000000000000000000000080
000000000000000000000000
000000000000000000000000
000000000000000000000100
000000000000000000000600
000000000000000000001C00
000000000000000000002800
00000000000000000000D800
000000000000000000011000
000000000000000000062000
000000000007800000086000
00000000007860000010C000
000000000180100000218000
000000000600100000C18000
00000000180008FFE1830000
0000000060000F001E060000
0000000080003800070C0000
000000010000C800088C0000
000000040003080010580000
000000080004100020300000
000000300018100060700000
0000004000202000C0F00000
000000800040200180C80000
000003000080400301880000
000076000000400603880000
001F8DF00000800C07080000
00E0180F000080180E080000
03003001F00100300C080000
0C0060003E0200601C100000
1000C0000FC400C038100000
2000800001F8018070200000
40018000007E0380E0400000
80030000002F8700E0800000
800600000043FE01C3000000
8006000001807E038C000000
800C000002003FFFF0000000
801800000400700F00000000
801800001800E00E00000000
803000006001C01C00000000
803000018003801800000000
406000060007003800000000
20600018000E007000000000
10C000E0000C006000000000
0CC00F00001800C010000000
03BFF000003001C020000000
01C000000060038040000000
0180000000C0030040000000
018000000180060080000000
018000000300060100000000
0100000006000C0200000000
010000001C00080400000000
010000003000181800000000
010000006000186000000000
01000000C0000D8000000000
018000030000060000000000
008000060000000000000000
004000080000000000000000
004000200000000000000000
003000C00000000000000000
000C07000000000000000000
0003F8000000000000000000
ENDCHAR
STARTCHAR 00C6
ENCODING 198
SWIDTH 1154 0
DWIDTH 97 0
BBX 111 56 10 -6
BITMAP
000000000000000000000000FFF0
000000000000000000000607800C
000000000000000000001C1C0006
0000000000000000000028700002
00000000000000000000D9C00002
0000000000000000000117000004
000000000000000000023E00000C
00000000000FC00000047C000018
0000000000703000000878000060
00000000018008000030F0000180
00000000060008000060E0001C00
0000000018000BFFFCC1E000E000
0000000060000C000383C0070000
00000001800078000343C0780000
0000000200008800043780000000
0000000400030800080F80000000
0000001800041000300D80000000
0000002000181000601D80000000
0000004000202000C03AC0000000
00000180004020018072C0000000
000003000000400300E270000000
0003FFE00000800601C21FF00000
003FFFFF8000800C0382FFF00000
01F00C0FF8010038070780000000
070018007F8200700E3C00000000
0C0030000FF400E01CC800000000
1000600000FC01C03F1000000000
2000C000001F83807C2000000000
400180000063E700F8C000000000
400300000080FE00E30FF8000000
8006000001001FE1CC100C000000
800600000600387FF0600E000000
800C00000800700F008007000000
801800003000E00E010007000000
80380000C001C01C020007000000
4030000300038018040003800000
4060000C00070038040003800000
30600070000E0030080007800000
08C00780001C0070080007000000
07C0F80000380060100007000000
00FF000000700060100007000000
0180000000E000E000000F000000
0180000001C000C000000E000000
01800000038000C000001E000000
01800000070000C000001C000000
018000000E0000C0000038000000
01800000180000C0000078000000
01800000300000C0000070000000
01800000600000C00000E0000000
00800001800000600001C0000000
0080000300000060000380000000
0040000400000030000600000000
0040001000000010001C00000000
002000600000000C007000000000
001803800000000301C000000000
0007FC0000000000FE0000000000
ENDCHAR
STARTCHAR 00C7
ENCODING 199
SWIDTH 535 0
DWIDTH 45 0
BBX 67 69 3 -17
BITMAP
000000000000000600
00000000000001F9C0
00000007FC000E0020
000000180380700020
000000600063800020
00000080001C000040
000003000018000080
000004000068000180
000008000184000200
000008000304000400
000010000404001800
000010001802006000
000020003002018000
000020006002060000
00004001C002380000
000040038003C00000
00004007001E000000
0000400E03E4000000
0000001C3E04000000
0000007FE004000000
000000FE0004000000
000003E00008000000
00000DC00008000000
000073800010000000
000187000010000000
00020F003FA0000000
000C0E00C060000000
00101C010060000000
006038060090000000
008038080110000000
010070100110000000
0200E0200210000000
0400E0200410000000
0801C0400810000000
100180801010000000
200381002010000000
400301004030000000
400302008020000000
400604010060000000
800604020040000000
8004000C00C0000000
800C00100080000000
800C00600180000000
400800800300000000
400803000300000000
20081C000600000000
100860000C00000000
0C1F80001800000000
03F000003000000000
001800002000000000
000800006000000000
000800008000000000
000800030000000000
000400060000000000
000400080000000000
000200300000000000
000181C00000000000
00007E000000000000
000080000000000000
000100000000000000
000200000000000000
0003F8000000000000
00001C000000000000
00000C000000000000
00000C000000000000
00000C000000000000
000018000000000000
001C78000000000000
0003E0000000000000
ENDCHAR
STARTCHAR 00C8
ENCODING 200
SWIDTH 571 0
DWIDTH 48 0
BBX 61 66 8 -7
BITMAP
0000000000000E00
0000000000000F00
0000000000000780
00000000000001C0
0000000000000020
0000000000000000
0000000000000000
0000000000000000
0000000000007F00
000000000007C0E0
00000000003C0018
0000000000E00008
0000000003800008
000007FE0E000008
000018019C000010
0000600078000020
0000800070000040
00010000F0000180
00010001C8000E00
0002000184003000
000400038403C000
00040003023C0000
0004000307C00000
00080007FA000000
0008001F01000000
000000E601000000
00000F0301000000
0000300301000000
0001C00301000000
0006000181000000
00180000E2000000
00200001FFE00000
00C0001E03800000
010000E002000000
0200030002000000
04000C0004000000
0800300004000000
1000E00008000000
1001C01F08000000
20030060F0000000
200E018030000000
401E020030000000
401C040058000000
4038080048000000
8070100088000000
807020010C000000
80E040020C000000
80C040040C000000
41C0800808000000
4180801018000000
4180806018000000
2380008030000000
3380030030000000
13000C0060000000
0F00700060000000
03078000C0000000
03F8000180000000
0300000100000000
0100000300000000
0180000400000000
0080000800000000
00C0003000000000
0060004000000000
0010018000000000
000E1E0000000000
0001E00000000000
ENDCHAR
STARTCHAR 00C9
ENCODING 201
SWIDTH 571 0
DWIDTH 48 0
BBX 64 66 8 -7
BITMAP
0000000000000003
0000000000000007
000000000000000E
0000000000000018
0000000000000020
0000000000000000
0000000000000000
0000000000000000
0000000000007F00
000000000007C0E0
00000000003C0018
0000000000E00008
0000000003800008
000007FE0E000008
000018019C000010
0000600078000020
0000800070000040
00010000F0000180
00010001C8000E00
0002000184003000
000400038403C000
00040003023C0000
0004000307C00000
00080007FA000000
0008001F01000000
000000E601000000
00000F0301000000
0000300301000000
0001C00301000000
0006000181000000
00180000E2000000
00200001FFE00000
00C0001E03800000
010000E002000000
0200030002000000
04000C0004000000
0800300004000000
1000E00008000000
1001C01F08000000
20030060F0000000
200E018030000000
401E020030000000
401C040058000000
4038080048000000
8070100088000000
807020010C000000
80E040020C000000
80C040040C000000
41C0800808000000
4180801018000000
4180806018000000
2380008030000000
3380030030000000
13000C0060000000
0F00700060000000
03078000C0000000
03F8000180000000
0300000100000000
0100000300000000
0180000400000000
0080000800000000
00C0003000000000
0060004000000000
0010018000000000
000E1E0000000000
0001E00000000000
ENDCHAR
STARTCHAR 00CA
ENCODING 202
SWIDTH 571 0
DWIDTH 48 0
BBX 61 69 8 -8
BITMAP
0000000000000008
0000000000000018
0000000000000078
00000000000000D8
0000000000000118
0000000000000608
0000000000001808
0000000000002008
0000000000000000
0000000000000000
0000000000000000
0000000000007F00
000000000007C0E0
00000000003C0018
0000000000E00008
0000000003800008
000007FE0E000008
000018019C000010
0000600078000020
0000800070000040
00010000F0000180
00010001C8000E00
0002000184003000
000400038403C000
00040003023C0000
0004000307C00000
00080007FA000000
0008001F01000000
000000E601000000
00000F0301000000
0000300301000000
0001C00301000000
0006000181000000
00180000E2000000
00200001FFE00000
00C0001E03800000
010000E002000000
0200030002000000
04000C0004000000
0800300004000000
1000E00008000000
1001C01F08000000
20030060F0000000
200E018030000000
401E020030000000
401C040058000000
4038080048000000
8070100088000000
807020010C000000
80E040020C000000
80C040040C000000
41C0800808000000
4180801018000000
4180806018000000
2380008030000000
3380030030000000
13000C0060000000
0F00700060000000
03078000C0000000
03F8000180000000
0300000100000000
0100000300000000
0180000400000000
0080000800000000
00C0003000000000
0060004000000000
0010018000000000
000E1E0000000000
0001E00000000000
ENDCHAR
STARTCHAR 00CB
ENCODING 203
SWIDTH 571 0
DWIDTH 48 0
BBX 64 64 8 -7
BITMAP
0000000000000607
0000000000000E07
0000000000000C06
0000000000000000
0000000000000000
0000000000000000
0000000000007F00
000000000007C0E0
00000000003C0018
0000000000E00008
0000000003800008
000007FE0E000008
000018019C000010
0000600078000020
0000800070000040
00010000F0000180
00010001C8000E00
0002000184003000
000400038403C000
00040003023C0000
0004000307C00000
00080007FA000000
0008001F01000000
000000E601000000
00000F0301000000
0000300301000000
0001C00301000000
0006000181000000
00180000E2000000
00200001FFE00000
00C0001E03800000
010000E002000000
0200030002000000
04000C0004000000
0800300004000000
1000E00008000000
1001C01F08000000
20030060F0000000
200E018030000000
401E020030000000
401C040058000000
4038080048000000
8070100088000000
807020010C000000
80E040020C000000
80C040040C000000
41C0800808000000
4180801018000000
4180806018000000
2380008030000000
3380030030000000
13000C0060000000
0F00700060000000
03078000C0000000
03F8000180000000
0300000100000000
0100000300000000
0180000400000000
0080000800000000
00C0003000000000
0060004000000000
0010018000000000
000E1E0000000000
0001E00000000000
ENDCHAR
STARTCHAR 00CC
ENCODING 204
SWIDTH 821 0
DWIDTH 69 0
BBX 85 66 16 -7
BITMAP
0000000000000000000300
0000000000000000000380
00000000000000000001E0
0000000000000000000070
0000000000000000000018
0000000000000000000000
0000000000000000000000
0000000000000000000000
0000000000000000000000
00000000000000000007F8
0000000000000000007E00
0000000000000000078800
0000000000000000383000
0000000000000000C04000
0000000000000007008000
0000000000078018010000
0000000000787860020000
00000000038005C0040000
000000000C000300080000
0000000030000E00100000
00000000C0001A00200000
0000000100003200400000
0000000400006200C00000
000000080000C200800000
0000003000018201020000
0000006000030403020000
0000008000060406020000
00000300000C0804040000
00000600001C080C040000
00000E0000381018040000
000FFFC000701030080000
0070383F00E02030100000
01803000F8C04060200000
06006000078080E0400000
0800C00003FC80C1800000
1001C00003038186000000
2001800006067FF8000000
400300000E080300000000
400700000C100700000000
800600000C200E00000000
800E000018C00C00000000
800C000019001800000000
801800001E003800000000
8018000038003000000000
4018000070006000000000
20300001B000E000000000
103000063001C000000000
0860007830018000000000
0660038030030010000000
01E07C0030060020000000
007F800030060040000000
00600000300C0080000000
0040000018180100000000
0040000018300200000000
004000000C600400000000
004000000CC01800000000
0040000007802000000000
006000000301C000000000
0020000006FE0000000000
0020000018000000000000
0010000020000000000000
00180000C0000000000000
000C000300000000000000
0002001C00000000000000
0001C1E000000000000000
00003E0000000000000000
ENDCHAR
STARTCHAR 00CD
ENCODING 205
SWIDTH 821 0
DWIDTH 69 0
BBX 88 66 16 -7
BITMAP
0000000000000000000007
000000000000000000000F
000000000000000000001C
0000000000000000000038
0000000000000000000060
0000000000000000000000
0000000000000000000000
0000000000000000000000
0000000000000000000000
00000000000000000007F8
0000000000000000007E00
0000000000000000078800
0000000000000000383000
0000000000000000C04000
0000000000000007008000
0000000000078018010000
0000000000787860020000
00000000038005C0040000
000000000C000300080000
0000000030000E00100000
00000000C0001A00200000
0000000100003200400000
0000000400006200C00000
000000080000C200800000
0000003000018201020000
0000006000030403020000
0000008000060406020000
00000300000C0804040000
00000600001C080C040000
00000E0000381018040000
000FFFC000701030080000
0070383F00E02030100000
01803000F8C04060200000
06006000078080E0400000
0800C00003FC80C1800000
1001C00003038186000000
2001800006067FF8000000
400300000E080300000000
400700000C100700000000
800600000C200E00000000
800E000018C00C00000000
800C000019001800000000
801800001E003800000000
8018000038003000000000
4018000070006000000000
20300001B000E000000000
103000063001C000000000
0860007830018000000000
0660038030030010000000
01E07C0030060020000000
007F800030060040000000
00600000300C0080000000
0040000018180100000000
0040000018300200000000
004000000C600400000000
004000000CC01800000000
0040000007802000000000
006000000301C000000000
0020000006FE0000000000
0020000018000000000000
0010000020000000000000
00180000C0000000000000
000C000300000000000000
0002001C00000000000000
0001C1E000000000000000
00003E0000000000000000
ENDCHAR
STARTCHAR 00CE
ENCODING 206
SWIDTH 821 0
DWIDTH 69 0
BBX 87 69 16 -7
BITMAP
0000000000000000000002
0000000000000000000006
000000000000000000000E
0000000000000000000036
0000000000000000000042
0000000000000000000182
0000000000000000000202
0000000000000000000400
0000000000000000000000
0000000000000000000000
0000000000000000000000
0000000000000000000000
00000000000000000007F8
0000000000000000007E00
0000000000000000078800
0000000000000000383000
0000000000000000C04000
0000000000000007008000
0000000000078018010000
0000000000787860020000
00000000038005C0040000
000000000C000300080000
0000000030000E00100000
00000000C0001A00200000
0000000100003200400000
0000000400006200C00000
000000080000C200800000
0000003000018201020000
0000006000030403020000
0000008000060406020000
00000300000C0804040000
00000600001C080C040000
00000E0000381018040000
000FFFC000701030080000
0070383F00E02030100000
01803000F8C04060200000
06006000078080E0400000
0800C00003FC80C1800000
1001C00003038186000000
2001800006067FF8000000
400300000E080300000000
400700000C100700000000
800600000C200E00000000
800E000018C00C00000000
800C000019001800000000
801800001E003800000000
8018000038003000000000
4018000070006000000000
20300001B000E000000000
103000063001C000000000
0860007830018000000000
0660038030030010000000
01E07C0030060020000000
007F800030060040000000
00600000300C0080000000
0040000018180100000000
0040000018300200000000
004000000C600400000000
004000000CC01800000000
0040000007802000000000
006000000301C000000000
0020000006FE0000000000
0020000018000000000000
0010000020000000000000
00180000C0000000000000
000C000300000000000000
0002001C00000000000000
0001C1E000000000000000
00003E0000000000000000
ENDCHAR
STARTCHAR 00CF
ENCODING 207
SWIDTH 821 0
DWIDTH 69 0
BBX 89 64 16 -7
BITMAP
000000000000000000030380
000000000000000000070300
000000000000000000060300
000000000000000000000000
000000000000000000000000
000000000000000000000000
000000000000000000000000
00000000000000000007F800
0000000000000000007E0000
000000000000000007880000
000000000000000038300000
0000000000000000C0400000
000000000000000700800000
000000000007801801000000
000000000078786002000000
00000000038005C004000000
000000000C00030008000000
0000000030000E0010000000
00000000C0001A0020000000
000000010000320040000000
0000000400006200C0000000
000000080000C20080000000
000000300001820102000000
000000600003040302000000
000000800006040602000000
00000300000C080404000000
00000600001C080C04000000
00000E000038101804000000
000FFFC00070103008000000
0070383F00E0203010000000
01803000F8C0406020000000
06006000078080E040000000
0800C00003FC80C180000000
1001C0000303818600000000
2001800006067FF800000000
400300000E08030000000000
400700000C10070000000000
800600000C200E0000000000
800E000018C00C0000000000
800C00001900180000000000
801800001E00380000000000
801800003800300000000000
401800007000600000000000
20300001B000E00000000000
103000063001C00000000000
086000783001800000000000
066003803003001000000000
01E07C003006002000000000
007F80003006004000000000
00600000300C008000000000
004000001818010000000000
004000001830020000000000
004000000C60040000000000
004000000CC0180000000000
004000000780200000000000
006000000301C00000000000
0020000006FE000000000000
002000001800000000000000
001000002000000000000000
00180000C000000000000000
000C00030000000000000000
0002001C0000000000000000
0001C1E00000000000000000
00003E000000000000000000
ENDCHAR
STARTCHAR 00D1
ENCODING 209
SWIDTH 952 0
DWIDTH 80 0
BBX 105 64 13 -7
BITMAP
0000000000000000000003F00000
00000000000000000000041C4000
0000000000000000000000078000
0000000000000000000000000000
0000000000000000000000000000
0000000000000000000000000000
0000000000000000000000000F00
0000000000000000000000007080
0000000000000000000800018080
0000000000000000001000020080
00000000000000000030000C0080
0000000000000000005000100000
000000000000000000A000200000
0000000000000000012000C00000
00000000007FE000022001000000
0000000001801800044002000000
000000000E0007FC084004000000
0000000010003C03904008000000
000000006000C400608010000000
0000000180010400208020000000
0000000200060800508040000000
0000000400080800908080000000
0000001000100800918100000000
0000002000201001110200000000
0000004000401002110400000000
0000008000802004230400000000
0000030000002004230800000000
0000060000004008431000000000
003FFF0000008010422000000000
00C018F000008020864000000000
0700300F00010023068000000000
08003000F0020044070000000000
100060000F8400B8060000000000
2000C000007F83C00C0000000000
4001800000087F000C0000000000
4001800000100200180000000000
8003000000200400280000000000
8006000000C00C00480000000000
8006000001001800500000000000
800C000002003000900000000000
401800000C002001100000000000
4018000030004002200000000000
20300000C000C002200000000000
1030000300018004200000000000
0820001C00030008400000000000
066001E000060008400000000000
01E07E0000040010800000000000
005F800000080020800000000000
00C0000000100021000000000000
00C0000000200041000000000000
00C0000000400081000000000000
0080000000800082000000000000
0080000001000104000000000000
0080000002000104000000000000
008000000C000208000000000000
00C0000010000210000000000000
0040000020000220000000000000
00400000C00001C0000000000000
0020000100000000000000000000
0020000600000000000000000000
0010001800000000000000000000
000800E000000000000000000000
00070F0000000000000000000000
0000F00000000000000000000000
ENDCHAR
STARTCHAR 00D2
ENCODING 210
SWIDTH 666 0
DWIDTH 56 0
BBX 58 66 13 -7
BITMAP
0000000000001C00
0000000000001E00
0000000000000700
0000000000000180
0000000000000040
0000000000000000
0000000000000000
0000000000000000
0000000000000000
0000000000003F80
00000001FE01C040
0000000E01C20040
00000030002C0040
00000040003000C0
00000180004800C0
0000020000880140
0000020003040140
0000040006040240
000008000C040C40
0000100018041040
0000100030046080
0000200060058080
00002000C00E0080
0000400180F40100
0000400307040100
0000000678040100
0000000F80040200
000001F800080200
00000E3800080400
0000707000080400
0003806000100800
000C00C000101800
0010018000101000
0060038000203000
0080030000202000
0300060000404000
04000E000040C000
08000C0000808000
1000180000810000
1000380001030000
2000300002060000
4000600004040000
4000600004080000
8000C00008180000
8000C00010300000
8001800020200000
80018000C0600000
8003000100C00000
8003000201800000
8002000C01000000
8006003002000000
400600C004000000
2004030008000000
10041C0010000000
0E0DE00020000000
01FE000040000000
0008000080000000
0008000100000000
0008000200000000
0008000400000000
0008000800000000
0008003000000000
0004004000000000
0004018000000000
0003060000000000
0000F80000000000
ENDCHAR
STARTCHAR 00D3
ENCODING 211
SWIDTH 666 0
DWIDTH 56 0
BBX 61 66 13 -7
BITMAP
0000000000000038
0000000000000078
00000000000000E0
00000000000001C0
0000000000000300
0000000000000000
0000000000000000
0000000000000000
0000000000000000
0000000000003F80
00000001FE01C040
0000000E01C20040
00000030002C0040
00000040003000C0
00000180004800C0
0000020000880140
0000020003040140
0000040006040240
000008000C040C40
0000100018041040
0000100030046080
0000200060058080
00002000C00E0080
0000400180F40100
0000400307040100
0000000678040100
0000000F80040200
000001F800080200
00000E3800080400
0000707000080400
0003806000100800
000C00C000101800
0010018000101000
0060038000203000
0080030000202000
0300060000404000
04000E000040C000
08000C0000808000
1000180000810000
1000380001030000
2000300002060000
4000600004040000
4000600004080000
8000C00008180000
8000C00010300000
8001800020200000
80018000C0600000
8003000100C00000
8003000201800000
8002000C01000000
8006003002000000
400600C004000000
2004030008000000
10041C0010000000
0E0DE00020000000
01FE000040000000
0008000080000000
0008000100000000
0008000200000000
0008000400000000
0008000800000000
0008003000000000
0004004000000000
0004018000000000
0003060000000000
0000F80000000000
ENDCHAR
STARTCHAR 00D4
ENCODING 212
SWIDTH 666 0
DWIDTH 56 0
BBX 60 69 13 -7
BITMAP
0000000000000010
0000000000000030
00000000000000F0
00000000000001B0
0000000000000630
0000000000000810
0000000000003010
0000000000004010
0000000000000000
0000000000000000
0000000000000000
0000000000000000
0000000000003F80
00000001FE01C040
0000000E01C20040
00000030002C0040
00000040003000C0
00000180004800C0
0000020000880140
0000020003040140
0000040006040240
000008000C040C40
0000100018041040
0000100030046080
0000200060058080
00002000C00E0080
0000400180F40100
0000400307040100
0000000678040100
0000000F80040200
000001F800080200
00000E3800080400
0000707000080400
0003806000100800
000C00C000101800
0010018000101000
0060038000203000
0080030000202000
0300060000404000
04000E000040C000
08000C0000808000
1000180000810000
1000380001030000
2000300002060000
4000600004040000
4000600004080000
8000C00008180000
8000C00010300000
8001800020200000
80018000C0600000
8003000100C00000
8003000201800000
8002000C01000000
8006003002000000
400600C004000000
2004030008000000
10041C0010000000
0E0DE00020000000
01FE000040000000
0008000080000000
0008000100000000
0008000200000000
0008000400000000
0008000800000000
0008003000000000
0004004000000000
0004018000000000
0003060000000000
0000F80000000000
ENDCHAR
STARTCHAR 00D5
ENCODING 213
SWIDTH 666 0
DWIDTH 56 0
BBX 64 64 13 -7
BITMAP
0000000000000FC0
0000000000003073
000000000000003C
0000000000000000
0000000000000000
0000000000000000
0000000000000000
0000000000003F80
00000001FE01C040
0000000E01C20040
00000030002C0040
00000040003000C0
00000180004800C0
0000020000880140
0000020003040140
0000040006040240
000008000C040C40
0000100018041040
0000100030046080
0000200060058080
00002000C00E0080
0000400180F40100
0000400307040100
0000000678040100
0000000F80040200
000001F800080200
00000E3800080400
0000707000080400
0003806000100800
000C00C000101800
0010018000101000
0060038000203000
0080030000202000
0300060000404000
04000E000040C000
08000C0000808000
1000180000810000
1000380001030000
2000300002060000
4000600004040000
4000600004080000
8000C00008180000
8000C00010300000
8001800020200000
80018000C0600000
8003000100C00000
8003000201800000
8002000C01000000
8006003002000000
400600C004000000
2004030008000000
10041C0010000000
0E0DE00020000000
01FE000040000000
0008000080000000
0008000100000000
0008000200000000
0008000400000000
0008000800000000
0008003000000000
0004004000000000
0004018000000000
0003060000000000
0000F80000000000
ENDCHAR
STARTCHAR 00D6
ENCODING 214
SWIDTH 666 0
DWIDTH 56 0
BBX 63 64 13 -7
BITMAP
0000000000001C0E
000000000000181C
0000000000001818
0000000000000000
0000000000000000
0000000000000000
0000000000000000
0000000000003F80
00000001FE01C040
0000000E01C20040
00000030002C0040
00000040003000C0
00000180004800C0
0000020000880140
0000020003040140
0000040006040240
000008000C040C40
0000100018041040
0000100030046080
0000200060058080
00002000C00E0080
0000400180F40100
0000400307040100
0000000678040100
0000000F80040200
000001F800080200
00000E3800080400
0000707000080400
0003806000100800
000C00C000101800
0010018000101000
0060038000203000
0080030000202000
0300060000404000
04000E000040C000
08000C0000808000
1000180000810000
1000380001030000
2000300002060000
4000600004040000
4000600004080000
8000C00008180000
8000C00010300000
8001800020200000
80018000C0600000
8003000100C00000
8003000201800000
8002000C01000000
8006003002000000
400600C004000000
2004030008000000
10041C0010000000
0E0DE00020000000
01FE000040000000
0008000080000000
0008000100000000
0008000200000000
0008000400000000
0008000800000000
0008003000000000
0004004000000000
0004018000000000
0003060000000000
0000F80000000000
ENDCHAR
STARTCHAR 00D8
ENCODING 216
SWIDTH 666 0
DWIDTH 56 0
BBX 66 57 13 -7
BITMAP
0000000000003F80C0
00000001FE01C04180
0000000E01C2004300
00000030002C004600
00000040003000CC00
00000180004800D800
000002000088012000
000002000304014000
00000400060402C000
000008000C040D4000
000010001804124000
0000100030046C8000
000020006005988000
00002000C00E308000
0000400180F4610000
000040030704C10000
000000067805810000
0000000F8007020000
000001F80006020000
00000E38000C040000
000070700018040000
000380600030080000
000C00C00050180000
001001800090100000
006003800320300000
008003000620200000
030006000C40400000
04000E001840C00000
08000C003080800000
100018006081000000
10003800C103000000
200030018206000000
400060030204000000
400060060408000000
8000C00C0818000000
8000C0181030000000
800180202020000000
800180404060000000
8003008180C0000000
800303020180000000
8002060C0100000000
80060C300200000000
400618C00400000000
200433000800000000
10047C001000000000
0E0DC0002000000000
01FF80004000000000
000B00008000000000
000E00010000000000
000C00020000000000
001800040000000000
002800080000000000
004800300000000000
018400400000000000
030401800000000000
060306000000000000
0000F8000000000000
ENDCHAR
STARTCHAR 00D9
ENCODING 217
SWIDTH 785 0
DWIDTH 66 0
BBX 68 76 15 -22
BITMAP
000000000000008000
00000000000001E000
00000000000000F000
000000000000003800
000000000000000C00
000000000180000200
000000007E7C000000
000000038002000000
0000001C0001000000
000000600000800000
000001800000800000
000006000000400000
000008000000400000
000030000000400000
0000C0000000400000
000180007800400070
000300078600400190
000E00180200C00210
001C00600100800420
003000800200800820
006003000201801040
00C004000203002040
01C008000203002080
018010000406004100
03002000040C008100
06004000080C010200
0C008001FC18010400
0C0100061230020400
180200082160040800
1002003020C00C1000
300400404180082000
200800808380102000
201001010780304000
401002020E80208000
402000021C80610000
402000043900C20000
804000087101820000
80800010E101840000
80800041C203080000
810000838203100000
810001070406200000
81000606040E200000
4200080C080C400000
42003018081C800000
2400C0381019000000
240300302032000000
1C1C00602034000000
07E000C04064000000
080000C08068000000
0800018100D0000000
0800010100E0000000
0800030201C0000000
080002040180000000
080002080180000000
080006100380000000
080004200F00000000
080004401300000000
040004802300000000
040005004700000000
020006008600000000
01001C030600000000
0080620C0600000000
007F81F00600000000
000000000400000000
000000000400000000
000000000400000000
000000000400000000
000000000400001000
000000000400002000
000000000400004000
000000000200008000
000000000200010000
000000000100060000
000000000080080000
000000000040700000
00000000003F800000
ENDCHAR
STARTCHAR 00DA
ENCODING 218
SWIDTH 785 0
DWIDTH 66 0
BBX 68 76 15 -21
BITMAP
000000000000000030
000000000000000070
0000000000000000F0
0000000000000001C0
000000000000000300
000000000180000400
000000007E7C000000
000000038002000000
0000001C0001000000
000000600000800000
000001800000800000
000006000000400000
000008000000400000
000030000000400000
0000C0000000400000
000180007800400070
000300078600400190
000E00180200C00210
001C00600100800420
003000800200800820
006003000201801040
00C004000203002040
01C008000203002080
018010000406004100
03002000040C008100
06004000080C010200
0C008001FC18010400
0C0100061230020400
180200082160040800
1002003020C00C1000
300400404180082000
200800808380102000
201001010780304000
401002020E80208000
402000021C80610000
402000043900C20000
804000087101820000
80800010E101840000
80800041C203080000
810000838203100000
810001070406200000
81000606040E200000
4200080C080C400000
42003018081C800000
2400C0381019000000
240300302032000000
1C1C00602034000000
07E000C04064000000
080000C08068000000
0800018100D0000000
0800010100E0000000
0800030201C0000000
080002040180000000
080002080180000000
080006100380000000
080004200F00000000
080004401300000000
040004802300000000
040005004700000000
020006008600000000
01001C030600000000
0080620C0600000000
007F81F00600000000
000000000400000000
000000000400000000
000000000400000000
000000000400000000
000000000400001000
000000000400002000
000000000400004000
000000000200008000
000000000200010000
000000000100060000
000000000080080000
000000000040700000
00000000003F800000
ENDCHAR
STARTCHAR 00DB
ENCODING 219
SWIDTH 785 0
DWIDTH 66 0
BBX 68 78 15 -21
BITMAP
000000000000000060
0000000000000000E0
0000000000000001E0
000000000000000660
000000000000000820
000000000000003020
000000000000004020
000000000180000000
000000007E7C000000
000000038002000000
0000001C0001000000
000000600000800000
000001800000800000
000006000000400000
000008000000400000
000030000000400000
0000C0000000400000
000180007800400070
000300078600400190
000E00180200C00210
001C00600100800420
003000800200800820
006003000201801040
00C004000203002040
01C008000203002080
018010000406004100
03002000040C008100
06004000080C010200
0C008001FC18010400
0C0100061230020400
180200082160040800
1002003020C00C1000
300400404180082000
200800808380102000
201001010780304000
401002020E80208000
402000021C80610000
402000043900C20000
804000087101820000
80800010E101840000
80800041C203080000
810000838203100000
810001070406200000
81000606040E200000
4200080C080C400000
42003018081C800000
2400C0381019000000
240300302032000000
1C1C00602034000000
07E000C04064000000
080000C08068000000
0800018100D0000000
0800010100E0000000
0800030201C0000000
080002040180000000
080002080180000000
080006100380000000
080004200F00000000
080004401300000000
040004802300000000
040005004700000000
020006008600000000
01001C030600000000
0080620C0600000000
007F81F00600000000
000000000400000000
000000000400000000
000000000400000000
000000000400000000
000000000400001000
000000000400002000
000000000400004000
000000000200008000
000000000200010000
000000000100060000
000000000080080000
000000000040700000
00000000003F800000
ENDCHAR
STARTCHAR 00DC
ENCODING 220
SWIDTH 785 0
DWIDTH 66 0
BBX 70 74 15 -21
BITMAP
00000000000000180C
000000000000003818
000000000000003038
000000000180002000
000000007E7C000000
000000038002000000
0000001C0001000000
000000600000800000
000001800000800000
000006000000400000
000008000000400000
000030000000400000
0000C0000000400000
000180007800400070
000300078600400190
000E00180200C00210
001C00600100800420
003000800200800820
006003000201801040
00C004000203002040
01C008000203002080
018010000406004100
03002000040C008100
06004000080C010200
0C008001FC18010400
0C0100061230020400
180200082160040800
1002003020C00C1000
300400404180082000
200800808380102000
201001010780304000
401002020E80208000
402000021C80610000
402000043900C20000
804000087101820000
80800010E101840000
80800041C203080000
810000838203100000
810001070406200000
81000606040E200000
4200080C080C400000
42003018081C800000
2400C0381019000000
240300302032000000
1C1C00602034000000
07E000C04064000000
080000C08068000000
0800018100D0000000
0800010100E0000000
0800030201C0000000
080002040180000000
080002080180000000
080006100380000000
080004200F00000000
080004401300000000
040004802300000000
040005004700000000
020006008600000000
01001C030600000000
0080620C0600000000
007F81F00600000000
000000000400000000
000000000400000000
000000000400000000
000000000400000000
000000000400001000
000000000400002000
000000000400004000
000000000200008000
000000000200010000
000000000100060000
000000000080080000
000000000040700000
00000000003F800000
ENDCHAR
STARTCHAR 00DF
ENCODING 223
SWIDTH 226 0
DWIDTH 19 0
BBX 65 64 -23 -12
BITMAP
000000000000003F00
00000000000000C080
000000000000010080
000000000000020080
000000000000040080
000000000000080180
000000000000100100
000000000000200300
000000000000400600
000000000000400C00
000000000000801800
000000000001003000
000000000001006000
00000000000200C000
000000000004010000
00000000000C060000
000000000008080000
000000000010100000
000000000030600000
000000000021800000
000000000042000000
000000000084000000
000000000088000000
000000000110000000
000000000210000000
000000000220000000
000000000420000000
000000000820000000
000000001820000000
000000001060000000
000000002060000000
000000006060000000
000000004060000000
000000008060000000
0000000180C0000000
0000000100C0000000
0000000200C0000000
0000000600C0000000
0000000C1080000000
000000086180000000
000000188180000000
000000310100000000
000000220300000000
000000640200000000
000000C40600000000
000000880400000000
000001080800000000
000003101000000000
000002102000000000
000004104000000000
00000C0F8000000000
000018000000000000
000010000000000000
000030000000000000
000060000000000000
0000C0000000000000
000180000000000000
400300000000000000
800600000000000000
800C00000000000000
803000000000000000
80C000000000000000
670000000000000000
180000000000000000
ENDCHAR
STARTCHAR 00E0
ENCODING 224
SWIDTH 226 0
DWIDTH 19 0
BBX 26 32 -1 1
BITMAP
0000E000
0000F000
00003800
00000C00
00000200
00000000
00000000
00000000
00000000
00003800
0000C480
00010500
00060300
00080600
00100C00
00200800
00401800
00C03000
01806000
03006000
0600C040
04018080
08030100
18070200
100E0400
20140800
402C1000
40482000
40884000
83108000
4C130000
780C0000
ENDCHAR
STARTCHAR 00E1
ENCODING 225
SWIDTH 226 0
DWIDTH 19 0
BBX 28 31 -1 1
BITMAP
00000030
00000070
000000E0
000001C0
00000300
00000400
00000000
00000000
00003800
0000C480
00010500
00060300
00080600
00100C00
00200800
00401800
00C03000
01806000
03006000
0600C040
04018080
08030100
18070200
100E0400
20140800
402C1000
40482000
40884000
83108000
4C130000
780C0000
ENDCHAR
STARTCHAR 00E2
ENCODING 226
SWIDTH 226 0
DWIDTH 19 0
BBX 26 34 -1 2
BITMAP
000000C0
000001C0
00000240
00000C40
00001040
00006040
00000000
00000000
00000000
00000000
00000000
00003800
0000C480
00010500
00060300
00080600
00100C00
00200800
00401800
00C03000
01806000
03006000
0600C040
04018080
08030100
18070200
100E0400
20140800
402C1000
40482000
40884000
83108000
4C130000
780C0000
ENDCHAR
STARTCHAR 00E3
ENCODING 227
SWIDTH 226 0
DWIDTH 19 0
BBX 29 30 -1 1
BITMAP
0000FE00
00010798
000001E0
00000000
00000000
00000000
00000000
00003800
0000C480
00010500
00060300
00080600
00100C00
00200800
00401800
00C03000
01806000
03006000
0600C040
04018080
08030100
18070200
100E0400
20140800
402C1000
40482000
40884000
83108000
4C130000
780C0000
ENDCHAR
STARTCHAR 00E4
ENCODING 228
SWIDTH 226 0
DWIDTH 19 0
BBX 28 30 -1 1
BITMAP
00007030
00006070
00006060
00000000
00000000
00000000
00000000
00003800
0000C480
00010500
00060300
00080600
00100C00
00200800
00401800
00C03000
01806000
03006000
0600C040
04018080
08030100
18070200
100E0400
20140800
402C1000
40482000
40884000
83108000
4C130000
780C0000
ENDCHAR
STARTCHAR 00E5
ENCODING 229
SWIDTH 226 0
DWIDTH 19 0
BBX 28 35 -1 1
BITMAP
000001E0
00000210
00000410
00000C20
00000820
00000840
00000880
00000F00
00000000
00000000
00000000
00000000
00003800
0000C480
00010500
00060300
00080600
00100C00
00200800
00401800
00C03000
01806000
03006000
0600C040
04018080
08030100
18070200
100E0400
20140800
402C1000
40482000
40884000
83108000
4C130000
780C0000
ENDCHAR
STARTCHAR 00E6
ENCODING 230
SWIDTH 309 0
DWIDTH 26 0
BBX 32 23 0 0
BITMAP
00003106
0001CF3F
000206FA
000407E2
00180F84
00300E08
00601C30
00C031C0
01802600
03007800
06008001
0C018002
18030004
18060008
300E0010
60140020
60240040
40480080
81880100
82080600
84040800
98023000
6001C000
ENDCHAR
STARTCHAR 00E7
ENCODING 231
SWIDTH 166 0
DWIDTH 14 0
BBX 22 36 -2 -15
BITMAP
00000C
00003C
0000FC
0001C4
000384
000708
000E00
001C00
003800
007000
00E000
01C000
018000
030008
070010
060020
040020
0C0040
080080
080100
100600
100800
081000
086000
078000
000000
080000
100000
1F8000
00C000
006000
006000
006000
00C000
E38000
1F0000
ENDCHAR
STARTCHAR 00E8
ENCODING 232
SWIDTH 178 0
DWIDTH 15 0
BBX 20 32 1 -1
BITMAP
000700
000780
0003C0
000060
000010
000000
000000
000000
000000
0000E0
000320
000C20
001840
002080
004100
008200
010C00
033000
06C000
0D0000
180010
100020
300040
200080
600100
400200
400400
801800
802000
404000
418000
3E0000
ENDCHAR
STARTCHAR 00E9
ENCODING 233
SWIDTH 178 0
DWIDTH 15 0
BBX 23 33 1 -1
BITMAP
000006
00000E
00001E
000038
000060
000080
000000
000000
000000
000000
0000E0
000320
000C20
001840
002080
004100
008200
010C00
033000
06C000
0D0000
180010
100020
300040
200080
600100
400200
400400
801800
802000
404000
418000
3E0000
ENDCHAR
STARTCHAR 00EA
ENCODING 234
SWIDTH 178 0
DWIDTH 15 0
BBX 23 35 1 -1
BITMAP
000002
000006
00000E
000032
000042
000182
000202
000000
000000
000000
000000
000000
0000E0
000320
000C20
001840
002080
004100
008200
010C00
033000
06C000
0D0000
180010
100020
300040
200080
600100
400200
400400
801800
802000
404000
418000
3E0000
ENDCHAR
STARTCHAR 00EB
ENCODING 235
SWIDTH 178 0
DWIDTH 15 0
BBX 25 31 1 -2
BITMAP
00010080
00030380
00070380
00060300
00000000
00000000
00000000
00000000
0000E000
00032000
000C2000
00184000
00208000
00410000
00820000
010C0000
03300000
06C00000
0D000000
18001000
10002000
30004000
20008000
60010000
40020000
40040000
80180000
80200000
40400000
41800000
3E000000
ENDCHAR
STARTCHAR 00EC
ENCODING 236
SWIDTH 95 0
DWIDTH 8 0
BBX 15 33 0 1
BITMAP
0060
0070
0038
000C
0002
0000
0000
0000
0000
000C
0008
0018
0030
0020
0060
00C0
0080
0100
0300
0600
0404
0C08
1808
1010
3020
2040
4040
4080
8100
8200
8C00
F800
6000
ENDCHAR
STARTCHAR 00ED
ENCODING 237
SWIDTH 95 0
DWIDTH 8 0
BBX 20 32 0 1
BITMAP
000030
000070
0000F0
0001C0
000300
000400
000000
000000
000C00
000800
001800
003000
002000
006000
00C000
008000
010000
030000
060000
040400
0C0800
180800
101000
302000
204000
404000
408000
810000
820000
8C0000
F80000
600000
ENDCHAR
STARTCHAR 00EE
ENCODING 238
SWIDTH 95 0
DWIDTH 8 0
BBX 19 36 0 0
BITMAP
000020
000060
0000E0
000360
000620
000820
003020
004000
000000
000000
000000
000000
000C00
000800
001800
003000
002000
006000
00C000
008000
010000
030000
060000
040400
0C0800
180800
101000
302000
204000
404000
408000
810000
820000
8C0000
F80000
600000
ENDCHAR
STARTCHAR 00EF
ENCODING 239
SWIDTH 95 0
DWIDTH 8 0
BBX 20 31 0 1
BITMAP
006030
006070
00E060
000000
000000
000000
000000
000C00
000800
001800
003000
002000
006000
00C000
008000
010000
030000
060000
040400
0C0800
180800
101000
302000
204000
404000
408000
810000
820000
8C0000
F80000
600000
ENDCHAR
STARTCHAR 00F1
ENCODING 241
SWIDTH 309 0
DWIDTH 26 0
BBX 27 30 5 -1
BITMAP
0003F800
00000E60
00000380
00000000
00000000
00000000
00000000
00380700
00C43880
01044080
02088080
040B0100
081C0300
10180600
20380C00
20301C00
40603800
80C07020
01806040
0180C080
03018080
06030100
04060200
0C0C0400
18080800
30181000
20102000
6010C000
C0310000
001E0000
ENDCHAR
STARTCHAR 00F2
ENCODING 242
SWIDTH 214 0
DWIDTH 18 0
BBX 22 32 1 1
BITMAP
0001C0
0001E0
0000F0
000038
000004
000000
000000
000000
000000
000038
0000CC
000304
000408
001808
003010
005010
00A020
012020
024040
044080
088104
108108
208210
208420
404840
403180
802E00
804000
808000
830000
860000
F80000
ENDCHAR
STARTCHAR 00F3
ENCODING 243
SWIDTH 214 0
DWIDTH 18 0
BBX 25 31 0 1
BITMAP
00000180
00000380
00000780
00000E00
00001800
00002000
00000000
00000000
00001C00
0000E400
00010400
00060400
000C0400
00180800
00700800
00D01000
01A02000
03202000
06204100
04408200
08410400
10420800
20421000
20442000
4038C000
402F0000
40200000
80400000
41800000
46000000
7C000000
ENDCHAR
STARTCHAR 00F4
ENCODING 244
SWIDTH 214 0
DWIDTH 18 0
BBX 24 35 1 1
BITMAP
000001
000003
000007
000019
000031
000041
000181
000000
000000
000000
000000
000000
000038
0000CC
000304
000408
001808
003010
005010
00A020
012020
024040
044080
088104
108108
208210
208420
404840
403180
802E00
804000
808000
830000
860000
F80000
ENDCHAR
STARTCHAR 00F5
ENCODING 245
SWIDTH 214 0
DWIDTH 18 0
BBX 27 30 1 1
BITMAP
0003F800
00000E60
00000380
00000000
00000000
00000000
00000000
00003800
0000CC00
00030400
00040800
00180800
00301000
00501000
00A02000
01202000
02404000
04408000
08810400
10810800
20821000
20842000
40484000
40318000
802E0000
80400000
80800000
83000000
86000000
F8000000
ENDCHAR
STARTCHAR 00F6
ENCODING 246
SWIDTH 214 0
DWIDTH 18 0
BBX 27 30 1 1
BITMAP
0001C0E0
0001C0C0
00018180
00000000
00000000
00000000
00000000
00003800
0000CC00
00030400
00040800
00180800
00301000
00501000
00A02000
01202000
02404000
04408000
08810400
10810800
20821000
20842000
40484000
40318000
802E0000
80400000
80800000
83000000
86000000
F8000000
ENDCHAR
STARTCHAR 00F8
ENCODING 248
SWIDTH 214 0
DWIDTH 18 0
BBX 30 24 -3 -1
BITMAP
00000184
00000648
00001870
00006060
0000C0C0
00038180
00070280
000D0D00
001A1100
00322200
00644400
00C58800
01860820
01041040
020C2080
06344300
04448400
0C833800
0902C000
0E040000
08180000
18200000
68C00000
87000000
ENDCHAR
STARTCHAR 00F9
ENCODING 249
SWIDTH 297 0
DWIDTH 25 0
BBX 26 33 6 -1
BITMAP
00070000
0003C000
0001E000
00007000
00000800
00000000
00000000
00000000
00080000
00760080
00820180
01060300
02040600
040C0400
08180C00
10301800
20603000
40E02000
81C06000
0380C040
03018080
06010100
0C030200
18060400
300C0400
30140800
60281000
40482000
C0904000
81108000
86090000
58060000
20000000
ENDCHAR
STARTCHAR 00FA
ENCODING 250
SWIDTH 297 0
DWIDTH 25 0
BBX 26 34 6 -1
BITMAP
000000C0
000001C0
000003C0
00000700
00000C00
00001000
00000000
00000000
00000000
00080000
00760080
00820180
01060300
02040600
040C0400
08180C00
10301800
20603000
40E02000
81C06000
0380C040
03018080
06010100
0C030200
18060400
300C0400
30140800
60281000
40482000
C0904000
81108000
86090000
58060000
20000000
ENDCHAR
STARTCHAR 00FB
ENCODING 251
SWIDTH 297 0
DWIDTH 25 0
BBX 26 36 6 -1
BITMAP
00000080
00000180
00000780
00000C80
00001080
00006080
00008080
00000000
00000000
00000000
00000000
00080000
00760080
00820180
01060300
02040600
040C0400
08180C00
10301800
20603000
40E02000
81C06000
0380C040
03018080
06010100
0C030200
18060400
300C0400
30140800
60281000
40482000
C0904000
81108000
86090000
58060000
20000000
ENDCHAR
STARTCHAR 00FC
ENCODING 252
SWIDTH 297 0
DWIDTH 25 0
BBX 27 32 6 -2
BITMAP
00004060
0001C0E0
0001C0C0
00018080
00000000
00000000
00000000
00080000
00760080
00820180
01060300
02040600
040C0400
08180C00
10301800
20603000
40E02000
81C06000
0380C040
03018080
06010100
0C030200
18060400
300C0400
30140800
60281000
40482000
C0904000
81108000
86090000
58060000
20000000
ENDCHAR
STARTCHAR 00FF
ENCODING 255
SWIDTH 285 0
DWIDTH 24 0
BBX 45 58 -12 -30
BITMAP
000000003018
000000007038
000000006030
000000004020
000000000000
000000000000
000000000000
000000000000
0000001E0040
000000210080
000000C10180
000001030300
000002020600
000004060600
0000080C0C00
000010181800
000020303000
000040603000
000040C06000
00000180C040
000003008080
000006010100
00000C020200
00000C020400
000018040800
000030080800
000020381000
000020502000
000040A04000
000021208000
000036430000
000008440000
000000880000
000000900000
000001600000
000000800000
000001000000
000006000000
00001C000000
000024000000
0000C8000000
000110000000
000610000000
000820000000
003040000000
0040C0000000
018180000000
020100000000
040200000000
080400000000
100800000000
201000000000
402000000000
804000000000
818000000000
820000000000
840000000000
780000000000
ENDCHAR
STARTCHAR 0131
ENCODING 305
SWIDTH 95 0
DWIDTH 8 0
BBX 14 22 0 0
BITMAP
000C
0018
0010
0020
0060
00C0
0080
0100
0300
0600
0404
0808
1810
1010
2020
4040
4080
8100
8200
8C00
F800
6000
ENDCHAR
STARTCHAR 0152
ENCODING 338
SWIDTH 928 0
DWIDTH 78 0
BBX 89 56 13 -6
BITMAP
00000000000000000001E000
0000000000003F80007E1E00
00000001FE00C08003C00100
00000006018300400E000180
00000018006C004038000080
00000060001000C0E0000180
0000008000680141C0000100
0000010000C8014380000200
000002000104024700000400
00000400020404CE00001800
000008000C0408DC00006000
00000800180410D800038000
00001000300460B8001C0000
00001000600581B001E00000
00002000C00E01F01E000000
00002001C074036000000000
000040038384036000000000
000040173C04026000000000
000003EFC004066000000000
00001FBC0008047000000000
0000F87800080C3000000000
000380F00008081800000000
000E01E00010180C00000000
001801C000103007FC000000
006003C0002033FFFC000000
008007800020CC0000000000
010007000043C00000000000
06000E000045800000000000
08001E00009901F000000000
10001C0000B3060E00000000
200038000166180300000000
2000300002C4200100000000
400070000588400180000000
400060000718800080000000
8000E0000F31000080000000
8000C0001E220000C0000000
800180006E640000C0000000
800180009CC4000080000000
800300011D88000180000000
800300061908000180000000
400300183A00000180000000
400600603C00000300000000
200601803800000300000000
10041E003800000600000000
0E05E0003000000E00000000
01FE00003000000C00000000
000C00007000001800000000
000C0001B000003000000000
000C00023000006000000000
000800041800004000000000
000800081800018000000000
000400100C00030000000000
0004006006000C0000000000
000401800300300000000000
0003060000E1C00000000000
0000F800001E000000000000
ENDCHAR
STARTCHAR 0153
ENCODING 339
SWIDTH 333 0
DWIDTH 28 0
BBX 33 24 1 -2
BITMAP
0000180300
0000640C80
0001863080
0006044100
000C058200
00380B0400
00700E1800
00D01C2000
01A018C000
0320330000
06406C0000
0C40500000
1840C20100
1041840100
2043180200
6047200400
404A400800
4033801000
802C006000
8044008000
8184010000
8204020000
8C020C0000
7001F00000
ENDCHAR
STARTCHAR 0178
ENCODING 376
SWIDTH 773 0
DWIDTH 65 0
BBX 76 85 9 -29
BITMAP
00000000000000000030
00000000000000000070
000000000000000000E0
00000000000000000180
00000000000000000300
00000000003FF0000400
0000000001C00E000000
000000000E0001000000
00000000300000800000
00000000C00000800000
00000003000000800000
0000000C000000400000
00000018000000400000
00000060000000400000
000000C0000000400070
0000018000FE00400090
00000300030100400110
00000C000C0100800220
00001800300100800220
00003800C00100800440
00007001000101000840
0000E002000203001080
0000C00C000202001100
00018010000406002100
0003002000040C004200
00070040007818004400
00060080038E30008400
000C00800C1170010800
000C01001020E0011000
001802006041C0022000
0010040080C380044000
00300401008380044000
00300801010680088000
00201000020C80110000
00601000041880120000
00402000083880240000
00402000107080480000
0040400060E100480000
0040400081C100900000
00404001018100A00000
00408002030201400000
0040800C060202800000
004080100C0403000000
00210060080406000000
00110180180804000000
00090600101008000000
0007F800201018000000
00010000202030000000
00010000404050000000
000100004080A0000000
00010000810320000000
00010000820440000000
00010000841840000000
00010000982080000000
0000800060C080000000
000080007F0080000000
00004001800100000000
00003006000300000000
00000FF8000200000000
00000000000600000000
00000000000400000000
00000000000C00800000
00000000001803000000
00007FFE00180C000000
000F8001FF3070000000
0070000000FF80000000
01800000006000000000
0200000000C000000000
0C000000018000000000
10000000030000000000
20000000060000000000
400000000C0000000000
C0000000180000000000
80000000300000000000
80000000600000000000
80000000800000000000
80000003000000000000
80000004000000000000
80000018000000000000
80000060000000000000
40000180000000000000
20000600000000000000
18003800000000000000
078FC000000000000000
00700000000000000000
ENDCHAR
STARTCHAR 0192
ENCODING 402
SWIDTH 107 0
DWIDTH 9 0
BBX 75 79 -36 -28
BITMAP
000000000000000001E0
00000000000000000620
00000000000000000820
00000000000000001020
00000000000000002040
00000000000000004040
00000000000000008080
00000000000000010100
00000000000000020200
00000000000000040C00
00000000000000081000
00000000000000102000
0000000000000010C000
00000000000000210000
00000000000000420000
000000000000008C0000
00000000000000900000
00000000000001600000
00000000000003800000
00000000000003000000
00000000000004000000
0000000000001C000000
00000000000028000000
000000000000D0000000
00000000000130000000
00000000000260000000
00000000000460000000
000000000018C0000000
00000000002FF8000000
00000000000180000000
00000000000300000000
00000000000600000000
00000000000600000000
00000000000C00000000
00000000001800000000
00000000001800000000
00000000003000000000
00000000002000000000
00000000006000000000
0000000000C000000000
00000000008000000000
00000000018000000000
00000000030000000000
00000000020000000000
00000000060000000000
00000000040000000000
00000000080000000000
00000000180000000000
00000000100000000000
00000000200000000000
00000000600000000000
00000000400000000000
00000000800000000000
00000000800000000000
00000001000000000000
00000002000000000000
00000002000000000000
00000004000000000000
00000008000000000000
00000008000000000000
00000010000000000000
00000020000000000000
00000020000000000000
00000040000000000000
00000080000000000000
00000080000000000000
00000100000000000000
00000200000000000000
00000400000000000000
00000800000000000000
00001000000000000000
00002000000000000000
00004000000000000000
00008000000000000000
80010000000000000000
80060000000000000000
40180000000000000000
20600000000000000000
1F800000000000000000
ENDCHAR
STARTCHAR 02DA
ENCODING 730
SWIDTH 285 0
DWIDTH 24 0
BBX 8 8 11 27
BITMAP
1E
21
42
82
82
84
88
70
ENDCHAR
STARTCHAR 02DC
ENCODING 732
SWIDTH 404 0
DWIDTH 34 0
BBX 13 3 18 53
BITMAP
7F00
81C8
00F0
ENDCHAR
STARTCHAR 2013
ENCODING 8211
SWIDTH 380 0
DWIDTH 32 0
BBX 23 5 10 15
BITMAP
0FE000
707802
801E02
0007FC
000040
ENDCHAR
STARTCHAR 2014
ENCODING 8212
SWIDTH 630 0
DWIDTH 53 0
BBX 36 5 17 27
BITMAP
0FFE000010
300FC00060
C001F80080
00003FC700
000000F800
ENDCHAR
STARTCHAR 2018
ENCODING 8216
SWIDTH 464 0
DWIDTH 39 0
BBX 9 11 35 40
BITMAP
C000
E000
F000
7000
3800
1C00
0C00
0600
0300
0100
0080
ENDCHAR
STARTCHAR 2019
ENCODING 8217
SWIDTH 178 0
DWIDTH 15 0
BBX 10 10 29 40
BITMAP
0080
01C0
0380
0780
0F00
1E00
1800
3000
4000
8000
ENDCHAR
STARTCHAR 201C
ENCODING 8220
SWIDTH 238 0
DWIDTH 20 0
BBX 14 11 23 40
BITMAP
4600
E700
F780
7380
39C0
1DE0
0C60
0630
0310
0108
0004
ENDCHAR
STARTCHAR 201D
ENCODING 8221
SWIDTH 476 0
DWIDTH 40 0
BBX 15 10 33 40
BITMAP
0084
01CE
039C
07BC
0F78
0EE0
18C0
3180
6200
8400
ENDCHAR
STARTCHAR 2020
ENCODING 8224
SWIDTH 107 0
DWIDTH 9 0
BBX 33 39 0 0
BITMAP
0000008000
0000018000
0000010000
0000020000
0000060000
00000C0000
0000180000
0000780000
0000B00080
0001600100
0002400100
000CC00200
0011800400
000F781800
000307E000
0006000000
000C000000
000C000000
0018000000
0030000000
0020000000
0060000000
00C0000000
0080000000
0180000000
0300000000
0602000000
0404000000
0C08000000
0808000000
1010000000
3020000000
2040000000
40C0000000
4180000000
8300000000
4600000000
7C00000000
7000000000
ENDCHAR
STARTCHAR 2022
ENCODING 8226
SWIDTH 95 0
DWIDTH 8 0
BBX 4 4 5 6
BITMAP
70
F0
E0
C0
ENDCHAR
ENDFONT
